<svg width="86" height="35" viewBox="0 0 86 35" fill="none" xmlns="http://www.w3.org/2000/svg">
<path d="M22.7603 17.6202C22.7603 17.6202 22.7603 17.6202 22.2708 17.6202C21.7813 17.6202 21.8303 16.8018 21.8303 16.2241C21.8303 15.6464 21.7324 12.8541 21.7324 11.0247C21.7324 9.14707 20.8024 8.66564 20.3619 8.13607C19.9213 7.60649 18.404 5.87334 18.404 5.87334C18.3061 5.77706 18.1592 5.72892 18.0124 5.77706C18.0124 5.77706 16.5929 6.40292 15.3693 7.17321C14.1456 7.9435 14.8308 8.76193 15.5161 9.82107C16.1524 10.8802 16.2014 10.9284 16.3972 10.8802C16.5929 10.8321 16.495 10.3988 16.495 9.9655C16.495 9.53222 17.1314 9.19522 18.0124 8.56936C18.8934 7.9435 18.8935 8.90636 18.9424 10.1581C18.9913 11.4098 19.1871 15.502 19.1871 16.9462C19.1871 18.3905 18.8934 18.4387 18.5998 18.4868C18.355 18.4868 18.1592 18.1498 18.0124 17.4277C17.8656 16.7055 17.6698 13.5762 17.6698 13.5762C17.6698 13.4318 17.7187 13.2392 17.8166 13.1429L18.5508 12.4689C18.6487 12.3727 18.6487 12.2282 18.5019 12.1801C18.5019 12.1801 18.3061 12.0357 14.7819 12.2764C14.3903 12.3245 13.9987 12.3245 13.6561 12.4208V4.38091L14.7329 3.0329C14.8308 2.88848 14.7819 2.84033 14.684 2.84033C14.684 2.84033 13.0687 3.0329 12.4324 3.0329C11.7961 3.0329 9.74035 3.08105 9.74035 3.08105C9.59351 3.08105 9.54456 3.17733 9.64245 3.27362L10.4256 4.33277C10.4256 4.33277 10.4256 4.33277 10.4746 4.38091V13.7207C9.78929 14.2021 9.15298 14.7317 8.27194 15.2612C7.78246 15.5501 7.24405 15.7908 6.75458 15.9834V6.1622C6.75458 6.01777 6.70563 5.53634 6.90142 5.29563L7.43984 4.66977C7.53773 4.57348 7.48878 4.4772 7.34194 4.4772H5.38406C5.23722 4.4772 5.04143 4.4772 4.89459 4.4772H2.54513C2.39829 4.4772 2.34934 4.57348 2.44723 4.66977L3.23039 5.44006C3.32828 5.53634 3.42618 5.8252 3.42618 6.30663V16.3685C3.32828 16.3685 3.23039 16.3204 3.18144 16.3204C2.39829 16.176 0.783034 14.7317 0.783034 14.7317C0.68514 14.6354 0.68514 14.491 0.783034 14.3947C0.783034 14.3947 1.02777 14.154 1.2725 13.9614C1.51724 13.8169 2.25145 13.3355 2.25145 13.3355C1.12566 13.3355 0.391458 13.4318 0.0488281 13.6244V14.9242C0.734087 16.176 1.90882 16.85 2.83881 17.4277C2.93671 17.524 3.18144 17.6203 3.42618 17.6684V24.1677C3.42618 24.3121 3.32828 24.5047 3.23039 24.5528L2.2025 25.4194C2.1046 25.5157 2.1046 25.5639 2.25145 25.5639C2.25145 25.5639 4.25828 25.612 5.23722 25.6601C6.26511 25.7083 7.58668 26.0453 7.58668 26.0453C7.73352 26.0934 7.73352 25.9971 7.68457 25.9009L6.95036 25.0824C6.85247 24.9861 6.80352 24.7936 6.80352 24.6491V17.524L6.95036 17.4758C7.09721 17.4277 7.29299 17.3795 7.43984 17.3795C7.43984 17.3795 8.12509 17.2351 8.8593 16.85C9.59351 16.513 10.4256 15.8871 10.4256 15.8871C10.5235 15.7908 10.6214 15.839 10.6214 15.9834C10.6214 15.9834 10.6214 16.5611 10.6214 17.5721C10.6214 18.5831 10.6214 22.0494 10.6214 23.5418C10.6214 25.0343 10.1809 25.949 9.74035 26.4786C9.29982 27.0081 8.95719 27.2007 9.05509 27.3933C9.15298 27.5859 9.49561 27.4896 9.64245 27.4896C9.7893 27.4896 11.013 27.3933 11.4535 27.3933C11.894 27.3933 13.5093 27.297 14.2435 27.5859C14.9777 27.8266 15.3203 27.8266 15.3693 27.5377C15.3693 27.3933 14.8798 27.2489 14.2924 26.286C13.9008 25.6601 13.8519 24.9861 13.8519 23.7826C13.8519 22.5308 13.9008 16.3204 13.8519 14.9242C13.803 13.5281 13.9498 13.5762 14.6351 13.3355C15.3203 13.1429 16.2014 12.9022 16.2014 12.9022C16.3482 12.8541 16.3482 12.9022 16.2503 12.9985C16.2503 12.9985 16.2503 12.9985 15.4672 13.6244C14.684 14.2502 14.7819 14.8761 15.0266 16.0797C15.1245 16.513 15.4182 17.861 15.8098 19.4015C16.1524 20.8458 17.3271 20.1718 17.8166 19.883C18.355 19.5941 18.7956 19.3534 18.7956 19.3534C18.8935 19.3053 19.0403 19.3534 19.0403 19.4978C19.0403 19.4978 19.1871 20.3163 19.8234 20.4125C20.4598 20.5088 20.6066 20.1237 21.2429 19.4015C21.8792 18.6794 22.8092 17.861 22.8092 17.861C22.8582 17.6684 22.8582 17.6202 22.7603 17.6202Z" fill="#CFA73B"/>
<path d="M26.8229 18.6794L26.1376 18.1498C26.0397 18.0536 25.9418 17.861 25.9418 17.7647C25.9418 17.7647 25.795 15.6464 25.746 13.6725C25.6971 12.5652 25.5502 9.48409 25.4034 7.0288L25.5502 6.98065C25.6971 6.93251 25.795 6.98065 25.8439 7.12508C25.8439 7.12508 26.2845 9.00266 26.4313 9.53224C26.5781 10.0618 26.3334 10.2544 26.3334 10.2544C26.2355 10.3507 26.1866 10.4951 26.2845 10.5914C26.3823 10.6877 26.5292 10.7358 26.6271 10.6395L28.7318 9.05081C28.8297 8.95452 28.9276 8.81009 28.8786 8.66566C28.8786 8.66566 28.7808 7.99166 28.3892 6.98065C28.0465 5.96965 27.4592 5.05493 27.4592 5.05493C27.4102 4.95865 27.2144 4.9105 27.1166 4.95865L25.3545 6.06594C25.2566 4.71793 25.2076 3.70693 25.2076 3.70693C25.2076 3.5625 25.1097 3.51435 25.0118 3.61064L21.194 6.45108C21.0961 6.54737 21.0961 6.59551 21.2429 6.59551L22.5645 6.64365C22.7113 6.64365 22.8092 6.78808 22.8092 6.88437L23.005 17.8128C23.005 17.9573 22.9071 18.1498 22.8092 18.2461L22.1729 18.9201C22.075 19.0164 22.124 19.1127 22.2218 19.0646L26.7739 18.872C26.9208 18.8238 26.9208 18.7757 26.8229 18.6794Z" fill="#CFA73B"/>
<path d="M28.8788 5.58478L29.1235 5.72921C29.2214 5.77735 29.3193 5.96992 29.3193 6.11435L29.1724 16.7058C29.1724 16.8503 29.0745 17.0428 28.9767 17.1391L28.1935 17.9094C28.0956 18.0057 28.1446 18.0538 28.2424 18.0538C28.2424 18.0538 29.1235 17.8613 30.2003 17.8613C31.2772 17.8613 32.5987 17.9575 32.5987 17.9575C32.7456 17.9575 32.7945 17.9094 32.6966 17.8131L32.1582 17.1873C32.0603 17.091 32.0114 16.8984 32.0114 16.754V6.49949C32.0603 6.11435 32.1582 6.01806 32.354 5.96992C32.5987 5.92178 32.8924 7.1735 33.0393 7.8475C33.1861 8.5215 32.7945 8.81036 32.7945 8.81036C32.6966 8.90665 32.6477 9.05108 32.7456 9.14736L32.7945 9.19551C32.8924 9.29179 33.0393 9.33994 33.1372 9.24365L35.3887 7.46236C35.4866 7.36607 35.5356 7.22164 35.4866 7.07721L34.214 3.94791C34.165 3.80348 34.0182 3.80348 33.9203 3.85163L31.9624 5.29592V2.31105C31.9624 2.16662 31.8645 2.16662 31.7666 2.26291L28.8298 5.29592C28.7319 5.3922 28.7809 5.53663 28.8788 5.58478Z" fill="#CFA73B"/>
<path d="M41.409 9.29169L38.5211 9.09912C38.3743 9.09912 38.3743 9.14726 38.4722 9.24355L39.0106 9.67684C39.1085 9.77312 39.1574 9.91755 39.1085 10.062C39.1085 10.062 38.668 11.3618 38.4232 12.0358C38.1785 12.6617 37.0038 14.9726 37.0038 14.9726C36.9548 15.0689 36.8569 15.0689 36.808 14.9244L35.878 11.0248C35.829 10.8804 35.9269 10.736 36.0248 10.6397L36.3675 10.399C36.4653 10.3027 36.4653 10.2546 36.3185 10.2546L32.5496 10.399C32.4027 10.399 32.4027 10.4953 32.5006 10.5916L32.7454 10.7841C32.8433 10.8804 32.9412 11.073 32.9901 11.1693L34.4585 18.1982C34.5075 18.3426 34.4585 18.5352 34.4096 18.6314L32.3048 23.0606C32.2559 23.1569 32.0601 23.2532 31.9133 23.2532L25.3054 22.7717C25.1586 22.7717 25.0607 22.531 25.1586 22.3385L25.5501 21.4719C25.5991 21.3275 25.7459 21.183 25.8438 21.1349L27.4591 20.4609C27.6059 20.4127 27.6059 20.2683 27.4591 20.2683L24.718 20.0276C24.5712 20.0276 24.3754 20.0757 24.2775 20.172C24.2775 20.172 23.5923 20.7016 23.3965 21.0386C23.2007 21.3756 22.6623 22.531 22.6623 22.531C22.6133 22.6755 22.6623 22.8199 22.7602 22.868C22.7602 22.868 25.4033 24.4086 26.9696 24.7456C28.5849 25.0826 32.6964 25.6122 32.6964 25.6122C32.8433 25.6122 32.9901 25.564 33.088 25.4196C33.088 25.4196 37.0527 18.7277 38.1785 16.465C39.3043 14.2023 41.5069 9.43612 41.5069 9.43612C41.6048 9.38798 41.5558 9.29169 41.409 9.29169Z" fill="#CFA73B"/>
<path d="M64.9528 21.3275C64.8549 21.2312 64.757 21.0867 64.757 20.9423L65.1486 7.36597C65.1486 7.22155 65.2465 7.12526 65.3933 7.12526H66.3723C66.5191 7.12526 66.617 7.02897 66.617 6.88454L66.5681 6.06611C66.5681 5.92168 66.4702 5.8254 66.3233 5.8254L65.2954 5.77725C65.1486 5.77725 65.0507 5.68097 65.0507 5.53654V2.40724C65.0507 2.26281 65.0018 2.26281 64.9039 2.3591C64.9039 2.3591 63.9739 3.61082 62.946 4.57368C61.4286 6.06611 60.2049 6.98083 60.2049 6.98083C60.1071 7.07712 60.1071 7.12526 60.2539 7.12526L62.0649 7.22155C62.2118 7.22155 62.3097 7.36597 62.3097 7.46226L62.3586 20.509C62.3586 20.6535 62.4565 20.7979 62.5544 20.8942L65.7849 22.6755C65.8828 22.7236 66.0296 22.6755 66.1275 22.5792C66.1765 22.4829 66.1765 22.2903 66.0296 22.194L64.9528 21.3275Z" fill="#CFA73B"/>
<path d="M74.791 21.6164L71.2668 21.3756C71.1199 21.3756 71.022 21.4238 71.022 21.5201C71.022 21.6164 71.1199 21.7126 71.2668 21.7608L72.9799 22.0015C73.1268 22.0015 73.1757 22.1459 73.0778 22.2422L72.4905 22.9162C72.3926 23.0125 72.2457 23.0606 72.0989 23.0125L70.4347 22.1459C70.3368 22.0978 70.1899 21.9052 70.1899 21.8089L69.9941 9.09916C69.9941 8.95473 70.092 8.85845 70.2389 8.85845L71.5605 8.76216C71.7073 8.76216 71.8052 8.61773 71.8052 8.52145V7.94373C71.8052 7.7993 71.7073 7.70301 71.5605 7.70301H70.1899C70.0431 7.70301 69.9452 7.60673 69.9452 7.4623L69.7984 3.61085C69.7984 3.46642 69.7494 3.46642 69.6515 3.56271C69.6515 3.56271 68.1831 5.87358 67.5468 6.64387C66.8615 7.41416 65.7357 8.56959 65.7357 8.56959C65.6379 8.66587 65.6868 8.76216 65.8336 8.76216H66.9594C67.1063 8.76216 67.2042 8.85845 67.2042 9.00288L67.3999 21.3756C67.3999 21.5201 67.4978 21.6645 67.6447 21.7126L72.5883 23.9272C72.7352 23.9754 72.882 23.9272 72.9799 23.8309L74.2036 22.2904C74.3015 22.1941 74.4483 22.0496 74.5462 21.9534L74.8399 21.7126C74.9868 21.6645 74.9378 21.6164 74.791 21.6164Z" fill="#CFA73B"/>
<path d="M76.9447 15.6465C76.8468 15.5502 76.7489 15.5502 76.7489 15.6946L75.8189 18.8721C75.77 19.0165 75.6721 19.0165 75.5742 18.9202L74.6442 18.0055C74.5463 17.9092 74.4484 17.7166 74.4484 17.5722L74.3016 12.5172C74.3016 12.3728 74.3995 12.2765 74.5463 12.3246L77.63 12.9986C77.7768 13.0468 77.9237 12.9505 78.0216 12.8542L78.9516 11.6025C79.0494 11.5062 79.0494 11.3136 79.0005 11.1692L78.0216 8.42503C77.9726 8.2806 77.8258 8.13617 77.7279 8.08803L75.2805 6.83631C75.1826 6.78817 74.9868 6.78817 74.8889 6.88445L72.0011 9.24346C71.9032 9.33975 71.8053 9.53232 71.8053 9.62861L71.5605 16.8019C71.5605 16.9464 71.6095 17.1389 71.7074 17.2352L73.959 19.4979C74.0568 19.5942 74.2526 19.6905 74.3995 19.6905L75.8679 19.7868C76.0147 19.7868 76.1616 19.7386 76.2595 19.5942L77.9237 17.3315C78.0216 17.2352 78.0216 17.0426 77.9237 16.9464L76.9447 15.6465ZM74.4974 8.37689C74.4974 8.23246 74.5953 8.08803 74.7421 8.08803L74.9379 8.03989C75.0847 7.99174 75.2316 8.08803 75.2805 8.18432L76.7979 11.6025C76.8468 11.7469 76.7979 11.795 76.651 11.795L74.6442 11.5062C74.4974 11.5062 74.3995 11.3618 74.3995 11.2173L74.4974 8.37689Z" fill="#CFA73B"/>
<path d="M84.3357 6.16217C84.2867 6.06589 84.1399 6.01774 83.9931 6.06589L82.3778 7.02875C82.2799 7.07689 82.1331 7.02875 82.1331 6.93246L81.9862 5.68074C81.9862 5.53631 81.8883 5.53631 81.7904 5.58446L78.6578 8.52118C78.5599 8.61747 78.6089 8.71376 78.7068 8.71376L79.0494 8.7619C79.1962 8.7619 79.2941 8.90633 79.2941 9.05076C79.2941 9.05076 79.441 16.3204 79.4899 17.8128C79.5389 20.0755 78.0215 20.3644 78.0215 20.3644C77.8747 20.4125 77.8747 20.4607 78.0215 20.4607C78.0215 20.4607 79.1473 20.8458 80.8604 21.231C82.5736 21.6161 85.1188 21.568 85.1188 21.568C85.2657 21.568 85.2657 21.5198 85.1188 21.4717C85.1188 21.4717 83.5525 20.894 83.161 20.6532C82.8183 20.4607 82.3289 20.4125 82.3289 17.2351C82.2799 13.3836 82.182 8.66561 82.182 8.66561C82.182 8.52118 82.2799 8.37675 82.3778 8.28047C82.4757 8.18418 82.6225 8.23233 82.6715 8.37675L83.4057 10.4469C83.4546 10.5913 83.4057 10.7839 83.3568 10.8802L82.9162 11.4579C82.8183 11.5542 82.8183 11.7468 82.9162 11.8431C83.0141 11.9393 83.161 11.9393 83.2589 11.8431C83.2589 11.8431 84.5315 10.8321 84.9231 10.495C85.3146 10.158 85.902 9.58033 85.902 9.58033C85.902 9.58033 85.951 9.53219 85.951 9.48405V9.19519L84.3357 6.16217Z" fill="#CFA73B"/>
<path d="M61.0858 10.3509C61.0858 10.2064 60.9879 10.0139 60.89 9.96571C60.89 9.96571 60.5474 9.43614 59.6663 8.71399C58.7853 7.99185 58.2958 7.84742 58.2958 7.84742C58.1979 7.75113 58.0021 7.75113 57.9043 7.79928L55.6527 8.85842C55.5058 8.90657 55.3101 9.00285 55.2122 9.09914L54.0864 9.77314C53.9885 9.82128 53.8906 10.0139 53.8906 10.1583C53.8906 10.1583 53.8416 10.3027 53.7927 10.8323C53.4501 10.736 53.1074 10.5916 52.8627 10.5434C52.9606 9.91757 53.1074 8.56956 53.1564 7.07713C53.2543 4.95884 53.2543 4.47741 53.2543 4.47741C53.2543 4.33298 53.2053 4.1404 53.1074 4.04412L50.2685 0.192674C50.2685 0.192674 50.2196 0.144531 50.1706 0.144531C50.1217 0.144531 41.9475 0.625962 41.9475 0.625962C41.9475 0.625962 43.2201 1.63697 43.318 1.68511C43.367 1.73325 43.4159 1.82954 43.4159 1.92582C43.4159 2.02211 43.9054 6.11427 43.9543 6.74013C44.1012 7.9437 44.3459 8.95471 44.1012 9.00285C43.9543 9.051 43.1712 8.37699 43.1712 8.37699C43.1712 8.37699 43.7586 14.7319 43.9543 16.0799C44.1012 17.4279 44.3949 19.161 44.248 19.161C44.1012 19.161 43.318 18.15 43.318 18.15L45.1291 35.2408C45.1291 35.2408 45.3738 32.6892 45.4717 31.2449C45.5696 29.8488 45.7654 25.9492 46.0591 25.9492C46.3527 25.9492 46.9891 27.1046 46.9891 27.1046C46.9891 27.1046 46.9401 21.857 46.9401 20.4609C46.9401 19.0647 46.7933 16.9465 47.038 16.8983C47.2827 16.8502 48.0659 19.0166 48.0659 19.0166C48.0659 19.0166 47.7722 14.4912 47.7233 10.9286L48.849 12.8543C48.898 12.9506 49.0938 13.0469 49.2406 13.0469C49.2406 13.0469 50.5622 12.8543 51.3453 12.5654C52.0796 12.2766 52.6669 11.5544 52.6669 11.5544L53.7927 11.9396C53.7927 12.3729 53.7438 12.9024 53.7438 13.5764C53.7438 16.128 53.9395 17.9093 53.9395 17.9093C53.9395 18.0537 54.0374 18.2463 54.1353 18.2945C54.1353 18.2945 54.6248 18.8722 55.408 19.5943C56.1911 20.2683 57.0232 20.846 57.0232 20.846C57.1211 20.9423 57.3169 20.9423 57.4148 20.8942C57.4148 20.8942 58.5895 20.5572 59.4216 20.1239C60.1069 19.7869 61.1837 19.0166 61.1837 19.0166C61.2816 18.9685 61.3795 18.7759 61.3795 18.6796C61.3795 18.6796 61.3795 15.3096 61.3795 14.0097C61.2327 12.3247 61.0858 10.3509 61.0858 10.3509ZM49.6322 10.7841L49.2406 11.2656C49.1427 11.3619 48.9959 11.3619 48.9469 11.2656L48.3596 10.4953C48.2617 10.399 48.3106 10.3027 48.4575 10.3509L49.5343 10.5434C49.6811 10.5434 49.7301 10.6879 49.6322 10.7841ZM49.5343 9.33985C49.5343 9.33985 49.3385 9.33985 48.9959 9.388C48.7512 9.388 48.0659 9.58057 47.6743 9.67686C47.6254 6.83642 47.5764 3.41826 47.5275 1.44439L49.3385 1.54068C49.4854 1.54068 49.4854 1.58882 49.4854 1.73325L49.7301 9.09914C49.779 9.24357 49.6811 9.33985 49.5343 9.33985ZM56.1422 10.3027C56.1422 10.1583 56.1911 10.0139 56.3379 9.91757L57.7574 9.00285C57.8553 8.90657 57.9043 8.95471 57.8553 9.09914C57.8553 9.09914 57.5616 9.86943 57.17 10.2546C56.7785 10.6397 56.4358 10.7841 56.4358 10.7841C56.289 10.8323 56.1911 10.7841 56.1911 10.6397L56.1422 10.3027ZM58.4427 18.7277C58.4427 18.8722 58.3448 19.0166 58.2469 19.1129L57.4148 19.5943C57.3169 19.6425 57.1211 19.6425 57.0232 19.5462L56.4848 18.8722C56.3869 18.7759 56.3379 18.5833 56.3379 18.4389L56.2401 11.8433C56.2401 11.6989 56.3379 11.5544 56.4848 11.5544L57.9532 11.2174C58.1 11.1693 58.1979 11.2656 58.1979 11.41C58.1979 11.41 58.3448 12.5654 58.4427 14.9244C58.4916 17.1872 58.4427 18.7277 58.4427 18.7277Z" fill="#CFA73B"/>
</svg>
