<svg width="65" height="29" viewBox="0 0 65 29" fill="none" xmlns="http://www.w3.org/2000/svg">
<g clip-path="url(#clip0)">
<path d="M31.0674 7.73475V13.876C33.6248 13.7101 33.3892 10.6228 33.3892 10.6228C32.9854 7.60197 31.0674 7.73475 31.0674 7.73475Z" fill="#EC1D24"/>
<path d="M20.8711 18.6891H22.8901L21.8133 12.3818L20.8711 18.6891Z" fill="#EC1D24"/>
<path d="M61.3524 4.91252C61.3861 4.87932 61.3861 4.84613 61.3861 4.77974C61.3861 4.71334 61.3524 4.64695 61.3188 4.61376C61.2851 4.58056 61.1842 4.54736 61.0832 4.54736H60.6458V5.01211H61.0496C61.1505 5.01211 61.2178 5.01211 61.2515 4.97891C61.2851 4.97891 61.3524 4.94572 61.3524 4.91252Z" fill="#EC1D24"/>
<path d="M60.9823 4.0498C60.3766 4.0498 59.9055 4.51455 59.9055 5.11208C59.9055 5.70961 60.3766 6.17436 60.9823 6.17436C61.588 6.17436 62.0591 5.70961 62.0591 5.11208C62.0591 4.51455 61.588 4.0498 60.9823 4.0498ZM61.4871 5.8092L61.2852 5.51044C61.2179 5.41085 61.1842 5.37765 61.1506 5.31126C61.1169 5.27806 61.0833 5.24487 61.0496 5.21167C61.016 5.17847 60.9823 5.17848 60.9487 5.17848C60.915 5.17848 60.8814 5.17848 60.8477 5.17848H60.6458V5.8092H60.4439V4.41496H61.0833C61.2179 4.41496 61.3188 4.41496 61.3861 4.44816C61.4534 4.48135 61.4871 4.51455 61.5544 4.58094C61.6217 4.64734 61.6217 4.71373 61.6217 4.78012C61.6217 4.87971 61.588 4.9461 61.5207 5.04569C61.4534 5.11208 61.3525 5.14528 61.2179 5.17848C61.2515 5.21167 61.3188 5.21167 61.3188 5.24487C61.3861 5.27806 61.4198 5.34446 61.4871 5.44404L61.7226 5.8092H61.4871Z" fill="#EC1D24"/>
<path d="M0.781982 0V28.2831H64.1116V0H0.781982ZM54.0839 7.96708H50.9207V12.2162H53.9156V16.5649H50.988V20.5152H54.0839V24.698H47.2192V4.78025L43.686 24.698H39.446L37.2251 11.4859C37.2251 11.4859 36.855 15.1375 34.7687 16.7973L37.4607 24.698H33.7592L31.1344 17.7931V24.698H23.6641L23.2939 22.7062H20.4337L19.828 24.698H12.6941V17.096L10.877 24.698H8.95897L7.27647 17.1624V24.5984L3.37305 24.698V4.01674H8.15137L9.83388 12.6809L11.7519 4.01674H16.362V22.6398L19.3569 4.01674H24.0679L27.0291 22.6398V4.08313H33.2881C33.2881 4.08313 35.4417 4.44829 36.5185 7.43594L36.0474 4.01674H39.8162L41.5996 14.7391L43.4504 4.08313H54.0839V7.96708ZM62.0253 24.7643H55.4635V4.01674H58.9968V20.5816H61.9916V24.7643H62.0253ZM60.9821 6.73882C60.0736 6.73882 59.3669 6.00851 59.3669 5.14541C59.3669 4.28231 60.1072 3.55199 60.9821 3.55199C61.857 3.55199 62.5974 4.28231 62.5974 5.14541C62.5974 6.00851 61.8907 6.73882 60.9821 6.73882Z" fill="#EC1D24"/>
</g>
<defs>
<clipPath id="clip0">
<rect width="63.3296" height="28.2831" fill="white" transform="translate(0.781982)"/>
</clipPath>
</defs>
</svg>
