<svg width="88" height="20" viewBox="0 0 88 20" fill="none" xmlns="http://www.w3.org/2000/svg">
<g clip-path="url(#clip0)">
<path fill-rule="evenodd" clip-rule="evenodd" d="M9.87563 15.5627C9.87563 15.7655 9.87563 16.0189 9.77625 16.3231C9.67687 16.6779 9.57748 17.1848 9.42841 17.8945C9.32902 18.6042 9.17995 18.9591 8.98118 18.9591C8.73272 18.9591 8.53395 18.9591 8.2358 18.9591C7.88795 18.9591 7.5898 18.9084 7.34134 18.9084C6.74504 18.9084 6.24812 18.9084 5.90028 18.9084C5.55243 18.9084 5.40336 18.9084 5.45305 18.9084C5.20459 18.9084 4.85674 18.9084 4.45921 18.9591C4.40952 18.9591 4.35982 18.9591 4.31013 18.9084C4.21075 18.8577 3.61444 18.8577 2.6206 18.8577H1.03046C1.03046 18.8577 0.980769 18.8577 0.881385 18.807C0.782001 18.7563 0.732309 18.7563 0.682617 18.7563C0.682617 18.6549 0.732309 18.5028 0.782001 18.3508C0.931077 18.3508 1.08015 18.3001 1.27892 18.1987C1.52738 18.0973 1.67646 17.8945 1.82553 17.6411C1.87522 17.5904 1.97461 17.489 2.0243 17.3369C2.0243 17.2355 2.0243 17.1342 1.97461 16.9314C1.92492 16.7286 1.92492 16.6272 1.92492 16.5258C1.97461 16.5258 2.12368 16.4245 2.32245 16.2724C2.32245 16.2724 2.27276 16.171 2.17338 15.9682C2.17338 15.9682 2.12368 15.9682 2.0243 15.9175C1.92492 15.8161 1.92492 15.6641 2.12368 15.4106C2.22307 15.2585 2.27276 15.1065 2.27276 14.9037C2.27276 14.7516 2.27276 14.5995 2.22307 14.3461C2.17338 14.0926 2.17338 13.9405 2.17338 13.8898C2.17338 13.8391 2.17338 13.7884 2.22307 13.7378C2.27276 13.6871 2.27276 13.6364 2.27276 13.5857V12.7746C2.27276 12.7746 2.27276 12.6732 2.32245 12.5718C2.37214 12.4704 2.37214 12.3691 2.37214 12.3184C2.37214 12.2677 2.32245 12.1663 2.27276 11.9635C2.27276 11.9635 2.27276 11.8621 2.27276 11.6087C2.27276 11.558 2.27276 11.4566 2.27276 11.4059C2.27276 11.3045 2.22307 11.2031 2.22307 11.1524C2.22307 11.0511 2.22307 10.899 2.27276 10.6962C2.32245 10.4427 2.32245 10.2907 2.32245 10.1893C2.32245 10.0879 2.32245 9.93582 2.27276 9.73305C2.27276 9.53028 2.22307 9.42889 2.22307 9.42889V8.56712C2.22307 8.51643 2.22307 8.46574 2.27276 8.41504L2.22307 7.45188C2.22307 7.19842 2.22307 6.99565 2.27276 6.84358C2.32245 6.79288 2.32245 6.6915 2.32245 6.59011C2.32245 6.43804 2.27276 6.23526 2.22307 6.0325C2.17338 5.88042 2.12368 5.67765 2.07399 5.47488C2.07399 5.47488 2.07399 5.3228 2.07399 5.01865C2.07399 5.01865 2.07399 4.35964 2.0243 3.09233C2.0243 2.99095 1.97461 2.83887 1.92492 2.6361C1.92492 2.6361 1.92492 2.53471 1.97461 2.28125C1.97461 2.23056 1.97461 2.17987 1.92492 2.07848C1.92492 2.02779 1.92492 1.9771 1.92492 1.9264C1.92492 1.9771 1.97461 1.77433 2.0243 1.41948C1.87522 1.2674 1.72615 1.01394 1.47769 0.709784C1.428 0.659091 1.32861 0.608399 1.17954 0.608399C0.980769 0.608399 0.881385 0.557706 0.831693 0.557706C0.831693 0.507014 0.831693 0.456321 0.831693 0.304244C0.881385 0.202859 0.881385 0.152166 0.931077 0.101474C1.17954 0.101474 1.27892 0.0507812 1.27892 0.0507812C1.77584 0.101474 2.47153 0.101474 3.46537 0.152166C3.71383 0.152166 3.81321 0.152166 3.76352 0.152166C4.65798 0.152166 5.1052 0.101474 5.05551 0.101474H6.29781C6.29781 0.202859 6.29781 0.354936 6.19843 0.507014C5.99966 0.557706 5.70151 0.608399 5.30397 0.659091C4.90644 0.760476 4.65798 1.06463 4.45921 1.57156C4.40952 1.72363 4.35982 1.9771 4.31013 2.38264C4.26044 2.94025 4.21075 3.34579 4.21075 3.59926V12.3691C4.21075 12.3691 4.21075 12.4704 4.21075 12.5718C4.21075 12.6732 4.21075 12.7239 4.21075 12.7746C4.21075 13.1294 4.21075 13.4336 4.21075 13.7378C4.21075 14.1433 4.21075 14.3461 4.35982 14.3968C4.35982 14.3968 4.35982 14.5488 4.31013 14.9544L4.26044 15.0051C4.45921 15.7148 4.5089 16.1203 4.5089 16.2217C4.40952 16.3231 4.35982 16.5258 4.26044 16.83C4.26044 16.8807 4.31013 17.1342 4.5089 17.5904C4.70767 17.5904 5.05551 17.6411 5.50274 17.6918C5.60212 17.6918 5.70151 17.7932 5.85058 17.8945C5.90028 17.8438 5.94997 17.7932 6.04935 17.6918C6.19843 17.6918 6.3972 17.6918 6.64566 17.7425C6.94381 17.7425 7.14257 17.7932 7.24196 17.7932C7.24196 17.7932 7.29165 17.7932 7.39104 17.7425C7.49042 17.6918 7.54011 17.6411 7.5898 17.6411C7.73888 17.5904 7.98734 17.5397 8.28549 17.489C8.33518 17.489 8.43457 17.3369 8.58364 17.1342L8.93149 16.6779C9.27933 16.2724 9.42841 15.9175 9.42841 15.5627C9.4781 15.4613 9.67687 15.512 9.87563 15.5627ZM2.52122 5.52557C2.52122 5.37349 2.52122 5.22142 2.52122 5.01865C2.52122 4.86657 2.52122 4.61311 2.52122 4.25826C2.52122 3.90341 2.52122 3.64995 2.52122 3.49787C2.52122 2.73748 2.42184 2.12917 2.27276 1.72363C2.22307 1.77433 2.22307 1.9264 2.27276 2.07848C2.27276 2.23056 2.32245 2.33194 2.32245 2.48402C2.32245 3.19372 2.37214 4.20757 2.52122 5.52557Z" fill="#EA901E"/>
<path fill-rule="evenodd" clip-rule="evenodd" d="M16.0372 9.02282C16.0372 9.32697 16.0372 9.58044 15.9875 9.73251C15.9378 9.8339 15.8882 10.0367 15.8385 10.2901C15.8385 10.5436 15.7888 10.8477 15.6894 11.1012C15.59 11.2026 15.4906 11.4054 15.3415 11.6081C15.2919 11.7602 15.1925 12.0137 14.9937 12.3178C14.8446 12.4699 14.5962 12.7234 14.298 13.0275C14.2483 13.0275 14.1986 13.0782 14.0992 13.1289C14.0496 13.1796 13.9005 13.281 13.7514 13.4331C12.9066 13.8893 12.1116 14.1935 11.3165 14.2441H10.273C10.273 14.2441 10.273 14.2441 10.2233 14.1935C9.67666 14.1935 9.22943 14.0921 8.98097 13.94C8.93128 13.94 8.8319 13.8893 8.68282 13.8386C8.48405 13.7372 8.13621 13.5851 7.73867 13.3824C7.24175 13.0275 6.79453 12.5713 6.3473 11.963C6.09884 11.6081 5.90007 11.2026 5.7013 10.645C5.50254 10.1381 5.45284 9.73251 5.40315 9.37767C5.35346 8.82005 5.40315 8.26243 5.45284 7.70481C5.50254 7.65412 5.50254 7.55274 5.60192 7.40066C5.65161 7.24858 5.7013 6.99512 5.751 6.69096C5.85038 6.48819 5.99946 6.23473 6.19822 5.87988C6.24792 5.82919 6.24791 5.72781 6.24791 5.67711C6.24791 5.67711 6.3473 5.67711 6.39699 5.67711C6.39699 5.62642 6.39699 5.47434 6.39699 5.37296C6.44668 5.37296 6.54607 5.32227 6.69514 5.22088C6.74483 5.1195 6.84422 4.96742 6.99329 4.81534C7.29145 4.66326 7.78837 4.4098 8.38467 4.05495C8.53375 3.95357 8.73251 3.90288 8.98097 3.85218C9.62697 3.70011 10.0245 3.64941 10.273 3.64941H10.8693C11.3165 3.64941 11.7637 3.70011 12.0619 3.80149C12.2606 3.85218 12.6582 4.00426 13.2545 4.25772C13.4036 4.35911 13.6023 4.46049 13.8508 4.66326C14.2483 4.91673 14.5962 5.32227 14.944 5.7785C15.2422 6.18404 15.4409 6.58958 15.5403 6.94443C15.59 6.99512 15.6397 7.0965 15.6894 7.19789C15.7888 7.50204 15.8882 8.00897 15.8882 8.61728C15.8882 8.61728 15.8882 8.66797 15.9379 8.76935C15.9875 8.92143 16.0372 8.97213 16.0372 9.02282ZM14.298 9.22559C14.2483 8.51589 14.0992 7.90758 13.9005 7.34997C13.652 6.64027 13.3042 6.03196 12.9563 5.62642C12.4594 5.01811 11.9128 4.71396 11.3165 4.61257C10.7699 4.51119 10.3723 4.46049 10.1239 4.51119C9.72635 4.56188 9.37851 4.66326 9.08036 4.81534C9.03067 4.81534 8.8319 4.96742 8.38467 5.27157C8.33498 5.32227 8.28529 5.37296 8.23559 5.47434C8.1859 5.47434 8.13621 5.52504 8.08652 5.52504C7.98713 5.67711 7.83806 5.87988 7.68898 6.08265C7.68898 6.13335 7.63929 6.23473 7.5896 6.33612C7.49021 6.48819 7.44052 6.64027 7.34114 6.79235C7.29145 6.99512 7.24175 7.29927 7.14237 7.70481C7.14237 7.85689 7.14237 8.11035 7.14237 8.41451C7.14237 8.41451 7.14237 8.4652 7.09268 8.51589C7.09268 8.56659 7.04299 8.61728 7.04299 8.61728C7.14237 8.97213 7.24175 9.47905 7.34114 10.0874C7.34114 10.1381 7.34114 10.1887 7.34114 10.2394C7.39083 10.2901 7.44052 10.4422 7.49021 10.5436C7.49021 10.5943 7.49021 10.6957 7.53991 10.7971C7.73867 11.2533 7.88775 11.5068 7.88775 11.5068C8.03683 11.8109 8.28529 12.0644 8.53375 12.3178C8.53375 12.3178 8.58344 12.4192 8.63313 12.6727C8.63313 12.6727 8.73251 12.6727 8.88159 12.7234C9.13005 12.9768 9.32882 13.1289 9.47789 13.2303C9.67666 13.3317 10.0245 13.4331 10.4717 13.4331C10.8693 13.4838 11.2171 13.4838 11.565 13.4331C11.6643 13.4331 11.7637 13.3824 11.8631 13.3317C12.0122 13.281 12.2606 13.1796 12.6085 13.0782C12.7079 13.0275 12.7576 12.9261 12.9066 12.8248C13.1054 12.6727 13.3042 12.5206 13.5029 12.2671C13.7017 12.0137 13.8011 11.8109 13.8508 11.6081C13.9005 11.5574 13.9502 11.4561 14.0496 11.3547C14.0496 11.2533 14.0496 11.1519 14.0992 10.9998C14.1489 10.9491 14.1489 10.8984 14.1986 10.8477C14.1986 10.7464 14.2483 10.4422 14.298 10.0367C14.298 9.58043 14.298 9.37767 14.298 9.22559Z" fill="#EA901E"/>
<path fill-rule="evenodd" clip-rule="evenodd" d="M25.4789 13.8387C25.4789 13.8894 25.4789 13.9401 25.4789 13.9908C25.4789 14.0415 25.4292 14.0922 25.3795 14.0922C25.3298 14.0922 25.2304 14.1428 25.0814 14.1428C25.0317 14.1428 24.9323 14.1935 24.7832 14.2442C24.6341 14.2949 24.5348 14.2949 24.4851 14.2949H24.4354C24.4354 14.2949 24.3857 14.2442 24.336 14.2442C24.2863 14.1935 24.2366 14.1428 24.2366 14.1428C24.1869 14.1428 24.1372 14.1428 23.9881 14.1428C24.0875 14.1935 24.1372 14.2442 24.2863 14.3456C24.0378 14.3456 23.8391 14.3456 23.7397 14.2442C23.7397 14.1935 23.7397 14.1428 23.7894 14.0415L23.7397 13.9908C23.7397 13.9908 23.5906 13.9908 23.2925 13.9401L23.2428 13.9908C23.2925 13.9908 23.2925 14.0415 23.3918 14.0415C23.2428 14.0415 23.1434 14.0415 23.0937 13.9908C23.044 13.9401 22.9943 13.8387 22.9446 13.788C22.8452 13.6866 22.7955 13.6359 22.6962 13.6359C22.5968 13.5345 22.398 13.2811 22.0999 12.9262C21.8514 12.6221 21.7023 12.47 21.6526 12.3686C21.6029 12.3686 21.5532 12.3179 21.5035 12.2165C21.4539 12.1151 21.4042 12.0138 21.3048 11.8617C21.3048 11.811 21.2551 11.811 21.2054 11.811C21.1557 11.6082 21.0563 11.4561 20.8576 11.3548C20.8576 11.3041 20.8576 11.2534 20.8576 11.2027C20.7582 11.1013 20.6588 10.9492 20.6091 10.8478C20.5097 10.6958 20.4103 10.5437 20.4103 10.4423V10.3916C20.4103 10.3916 20.46 10.3916 20.5097 10.3916C20.5097 10.3916 20.5594 10.4423 20.6091 10.4423C20.7085 10.4423 20.7582 10.3916 20.8079 10.3409C20.8576 10.3916 20.9569 10.493 21.0563 10.6451C21.106 10.6451 21.1557 10.5944 21.1557 10.5437C21.1557 10.4423 21.106 10.3916 21.0066 10.3916V10.3409V10.2902C21.0066 10.2902 21.0563 10.3409 21.106 10.3916L21.1557 10.3409C21.1557 10.2902 21.1557 10.2395 21.1557 10.1381C21.0563 10.0368 20.9569 10.0368 20.8576 10.0368C20.8079 10.0368 20.7085 10.0368 20.5594 10.0874C20.4103 10.1381 20.3606 10.1381 20.3109 10.1381C20.2612 10.1381 20.1619 10.1381 20.1122 10.0874C19.9631 9.98606 19.9134 9.88468 19.8637 9.68191L19.814 9.63122V9.58052C19.814 9.52983 19.7643 9.47914 19.7146 9.42845C19.6649 9.37775 19.6153 9.37775 19.5159 9.37775C19.3171 9.37775 19.0189 9.37775 18.6711 9.37775C18.2736 9.37775 17.9754 9.37775 17.8263 9.37775C17.7766 9.37775 17.7766 9.37775 17.7766 9.42845C17.7766 9.68191 17.7766 9.78329 17.7766 9.83399V10.5944C17.7766 11.0506 17.8263 11.3548 17.8263 11.4561C17.8263 11.4561 17.8263 11.5068 17.7766 11.5575C17.7766 11.6082 17.7766 11.6589 17.7766 11.6589C17.8263 11.7096 17.8263 11.811 17.876 11.9124C17.9257 12.2165 17.9257 12.4193 17.9257 12.47C17.876 12.5207 17.7766 12.5714 17.6773 12.6728V12.7235C17.876 12.7235 18.2239 12.7741 18.6711 12.8755C18.7208 12.8755 18.7705 12.9262 18.8202 12.9262C18.8202 12.9769 18.8202 13.0276 18.8202 13.1797C18.7705 13.2304 18.7208 13.2304 18.6711 13.2304C18.5717 13.2304 18.2736 13.1797 17.7766 13.129H16.584C16.4847 13.129 16.3853 13.1797 16.2362 13.1797C15.9877 13.1797 15.6896 13.1797 15.292 13.1797C15.292 13.129 15.292 13.0276 15.292 12.8755C15.3914 12.8248 15.5902 12.7741 15.789 12.7235C15.8884 12.6728 16.0374 12.5714 16.1368 12.4193C16.2859 12.2165 16.3356 12.1151 16.3356 11.9631C16.3853 11.4055 16.3853 11.1013 16.3853 11.0506V6.69105C16.3853 6.69105 16.3853 6.64036 16.3853 6.53897C16.3853 6.43759 16.3853 6.3869 16.3853 6.3869C16.3853 6.3362 16.3853 6.23482 16.3853 6.03205C16.3853 5.82928 16.3853 5.6772 16.3853 5.57582C16.3853 5.52512 16.3853 5.42374 16.3853 5.27166C16.3853 5.11958 16.3356 5.0182 16.3356 4.91681C16.3356 4.81543 16.2859 4.61266 16.2859 4.40989C16.2362 4.3592 16.2362 4.25781 16.1865 4.15643C16.1368 4.00435 15.9877 3.90297 15.7393 3.85227C15.6896 3.85227 15.6399 3.80158 15.5902 3.75089C15.5405 3.75089 15.4411 3.75089 15.292 3.75089C15.1927 3.7002 15.1927 3.59881 15.2424 3.44673C15.3417 3.39604 15.4908 3.39604 15.6896 3.34535C16.2859 3.29466 16.6337 3.24396 16.7331 3.24396H17.5282C17.5282 3.24396 17.6276 3.24396 17.8263 3.19327C18.0251 3.19327 18.1245 3.14258 18.1245 3.14258H18.5717C18.5717 3.14258 18.6711 3.14258 18.7705 3.14258C18.8699 3.14258 18.9693 3.14258 19.0189 3.19327C19.0686 3.19327 19.168 3.14258 19.3171 3.14258C19.7146 3.19327 20.1122 3.29466 20.6091 3.39604C20.8079 3.44673 21.1557 3.7002 21.6526 4.15643C21.6526 4.20712 21.6526 4.25781 21.6526 4.30851C21.6029 4.3592 21.4539 4.46058 21.2551 4.56197C21.0563 4.66335 20.9569 4.76474 20.8576 4.81543C20.8576 4.86612 20.9072 4.91681 21.0066 4.91681C21.0563 4.91681 21.1557 4.91681 21.2054 4.91681C21.2054 4.91681 21.2551 4.86612 21.2551 4.81543C21.3545 4.81543 21.4539 4.76474 21.4539 4.76474C21.4539 4.81543 21.5035 4.91682 21.6029 4.96751C21.6526 4.96751 21.7023 4.91682 21.7023 4.81543C21.7023 4.76474 21.6526 4.71405 21.6029 4.66335C21.6526 4.66335 21.7023 4.66335 21.752 4.66335C21.8514 4.66335 21.9011 4.71405 21.9508 4.71405C22.0005 4.91682 22.0502 5.11958 22.0502 5.32235C22.0999 5.62651 22.1495 5.82928 22.1495 6.03205C22.1495 6.18413 22.1495 6.3362 22.0999 6.48828C22.0502 6.69105 21.9508 7.0459 21.8017 7.45144C21.7023 7.65421 21.5035 7.90767 21.2551 8.26252C21.2551 8.26252 21.0563 8.4146 20.7582 8.71875C20.8576 8.92152 21.0066 9.17498 21.2054 9.42845C21.3545 9.63122 21.4539 9.83399 21.5532 9.98606C21.6526 10.1888 21.7023 10.2902 21.752 10.3916C21.752 10.4423 21.752 10.4423 21.8017 10.493C22.0005 10.7465 22.2986 11.2027 22.6962 11.7096V11.7603C22.8452 11.9124 23.044 12.0645 23.2925 12.3179C23.3918 12.4193 23.5409 12.6221 23.69 12.8248C23.5906 12.8248 23.4912 12.8755 23.4912 13.0276C23.4912 13.129 23.5409 13.1797 23.6403 13.2304C23.6403 13.0783 23.69 13.0276 23.7894 13.0276H23.8391C23.8391 13.0276 23.9385 13.0783 24.0875 13.1797C24.336 13.3318 24.5844 13.4332 24.8329 13.5852C25.1808 13.788 25.3298 13.788 25.4789 13.8387ZM21.106 6.58967C21.0066 6.53897 20.9569 6.48828 20.9569 6.43759V5.77859V5.72789C20.9569 5.6772 20.9569 5.6772 20.9569 5.6772C20.9569 5.42374 20.8079 5.11959 20.6091 4.81543C20.3606 4.46058 20.1122 4.25781 19.8637 4.20712C19.814 4.20712 19.7643 4.15643 19.7146 4.10574C19.3668 4.00435 19.1183 3.95366 19.0686 3.95366H18.5717C18.373 3.95366 18.2239 4.00435 18.0748 4.05504C18.0748 4.05504 18.0251 4.10574 17.9257 4.20712C18.0251 4.40989 18.0251 4.56197 18.0251 4.56197V4.61266V4.66335V5.52512C18.0251 5.52512 18.0251 5.57582 17.9754 5.62651C17.9754 5.6772 17.9257 5.72789 17.9257 5.72789C17.9257 5.82928 17.9754 5.93066 17.9754 6.03205C17.9754 6.13343 17.9754 6.23482 17.9754 6.28551C17.9257 6.48828 17.9257 6.74174 17.9754 7.0459C17.9754 6.99521 17.9754 7.09659 17.9754 7.35005V8.21183C17.9754 8.26252 17.9754 8.31321 17.9754 8.4146C17.9754 8.46529 17.9754 8.51598 17.9754 8.56667C17.9754 8.61737 18.0251 8.66806 18.0251 8.76944C18.1245 8.82014 18.2239 8.82014 18.4226 8.87083H19.4662C19.5656 8.82014 19.7643 8.71875 19.9631 8.66806C20.0625 8.61737 20.1619 8.56667 20.3109 8.51598C20.5097 8.31321 20.6588 8.11044 20.7582 7.90767C20.8576 7.75559 20.9072 7.55282 20.9569 7.29936C20.9569 7.19798 20.9569 7.09659 21.0066 6.94451C21.0066 6.89382 21.0066 6.79244 21.0563 6.69105C21.0563 6.58967 21.0563 6.58967 21.106 6.58967ZM20.8079 10.3409C20.7582 10.3916 20.7085 10.4423 20.6588 10.3916C20.6588 10.3916 20.7085 10.3409 20.8079 10.3409Z" fill="#EA901E"/>
<path fill-rule="evenodd" clip-rule="evenodd" d="M35.2683 8.1104C35.318 8.41455 35.2683 8.92148 35.1689 9.63117C35.1193 9.83394 35.0199 10.1888 34.9205 10.645C34.672 11.6082 34.2745 12.4193 33.6782 12.9769C33.4297 13.1796 33.1316 13.4331 32.7837 13.6359C32.3365 13.8893 31.9887 14.0414 31.7402 14.0921C31.6905 14.0921 31.6408 14.1428 31.5911 14.1935C30.796 14.2949 30.3985 14.3963 30.3985 14.3963H25.0815C25.0318 14.1935 25.0318 14.0921 25.1312 14.0414C25.3796 13.94 25.5287 13.8893 25.6281 13.8893C25.6778 13.8386 25.7275 13.788 25.7772 13.6866C26.0256 13.3824 26.1747 13.0783 26.1747 12.7741C26.1747 12.7741 26.1747 12.7234 26.125 12.5713C26.125 12.5206 26.1747 12.4193 26.1747 12.3179C26.125 12.2672 26.125 12.2165 26.0753 12.1151C26.0753 12.0644 26.0753 12.0137 26.125 11.9123C26.1747 11.8109 26.1747 11.7603 26.1747 11.7096C26.1747 11.5068 26.1747 11.1519 26.1747 10.6957V9.63117C26.1747 8.97217 26.1747 8.00901 26.1747 6.7417C26.1747 6.7417 26.1747 6.69101 26.125 6.64032C26.0753 6.58962 26.0753 6.53893 26.0753 6.53893C26.0753 6.43754 26.0753 6.28547 26.125 6.13339C26.1747 5.93062 26.1747 5.77854 26.1747 5.72785C26.1747 5.72785 26.1747 5.67716 26.125 5.57577C26.0753 5.52508 26.0753 5.47439 26.0753 5.4237C26.0753 5.32231 26.0753 5.17023 26.0753 4.91677C25.9759 4.51123 25.8268 4.30846 25.6281 4.20708C25.479 4.10569 25.2305 4.055 24.833 4.00431C24.833 3.95361 24.833 3.90292 24.833 3.80154C25.0318 3.59877 25.2802 3.54807 25.5287 3.59877C25.6281 3.64946 25.6778 3.70015 25.6778 3.70015C25.7275 3.70015 25.7772 3.64946 25.8268 3.59877C25.8765 3.59877 25.9759 3.59877 26.0753 3.59877C26.2244 3.59877 26.2741 3.59877 26.3238 3.59877C26.5722 3.59877 26.7213 3.70015 26.8207 3.85223H26.8704C26.9201 3.75084 27.0195 3.64946 27.1188 3.49738C27.2679 3.49738 27.417 3.54807 27.6655 3.59877C27.6655 3.59877 27.7151 3.59877 27.7151 3.54807C27.7648 3.49738 27.7648 3.49738 27.8145 3.49738C27.9636 3.44669 28.2121 3.396 28.5599 3.396H30.647C31.5414 3.59877 32.1874 3.80154 32.585 3.95361C33.2806 4.25777 33.8769 4.76469 34.3242 5.4237C34.4236 5.57577 34.5726 5.77854 34.7217 6.03201C34.9702 6.53893 35.1689 7.19793 35.2683 8.1104ZM34.9205 8.0597C34.2745 8.00901 33.7776 8.00901 33.5291 8.00901C33.4794 7.95832 33.4297 7.90763 33.4297 7.85693C33.4297 7.80624 33.4297 7.75555 33.4794 7.70486C33.38 7.45139 33.231 7.09655 33.0322 6.64032C32.734 6.03201 32.4359 5.52508 32.088 5.17023C31.7402 4.81539 31.1439 4.56192 30.3985 4.40985C30.0507 4.35915 29.9016 4.30846 29.9016 4.30846H29.0568C29.0568 4.30846 28.9078 4.35915 28.6096 4.40985C28.3114 4.46054 28.1127 4.51123 28.0133 4.51123C27.9139 4.91677 27.9139 5.32231 27.9139 5.82924C27.9139 6.03201 27.9139 5.67716 27.9139 4.714V8.1104C27.9139 10.4423 27.9139 11.4561 27.8642 11.2533C27.9139 11.6082 27.9139 11.7096 27.9139 11.6589C27.9139 11.9123 27.8642 12.0644 27.9139 12.2165C27.9139 12.2672 27.9139 12.3179 27.9636 12.47C28.0133 12.5713 28.0133 12.622 28.0133 12.6727C28.0133 12.6727 27.9139 12.7234 27.7648 12.7741C27.6158 12.8248 27.5661 12.8755 27.5164 12.9769C27.6158 13.0783 27.7151 13.129 27.9139 13.129C28.0133 13.129 28.1127 13.129 28.2618 13.129C29.355 13.281 30.001 13.3317 30.1997 13.3317C30.6967 13.3317 31.1936 13.2303 31.5911 13.0783C31.939 12.9262 32.2371 12.7234 32.4359 12.5206C32.9328 12.0137 33.231 11.3547 33.38 10.5943C33.4794 10.2395 33.5291 9.63117 33.5291 8.7694C33.5291 8.71871 33.4794 8.61732 33.38 8.46524C33.38 8.36386 33.38 8.36386 33.4297 8.31317C33.5291 8.26247 33.6782 8.26247 33.9266 8.21178C34.1751 8.21178 34.4733 8.16109 34.8708 8.1104C34.8708 8.16109 34.9205 8.1104 34.9205 8.0597Z" fill="#EA901E"/>
<path fill-rule="evenodd" clip-rule="evenodd" d="M60.015 14.9034C60.015 14.9541 60.015 15.0048 60.015 15.1061C60.015 15.2075 59.9653 15.2582 59.9156 15.2582C59.8659 15.2582 59.7168 15.3089 59.518 15.3089C59.4684 15.3089 59.3193 15.3596 59.1205 15.4103C58.9217 15.461 58.7727 15.5117 58.723 15.5117C58.6733 15.5117 58.6733 15.5117 58.6236 15.5117C58.5739 15.5117 58.5242 15.461 58.4745 15.4103C58.3751 15.3596 58.3751 15.3089 58.3751 15.2582C58.3254 15.2075 58.2261 15.2582 58.077 15.3089C58.1764 15.3596 58.3254 15.461 58.4745 15.5624C58.1267 15.5624 57.8782 15.5624 57.7291 15.461C57.7291 15.4103 57.7788 15.3089 57.7788 15.2075L57.7291 15.1568C57.7291 15.1568 57.5304 15.1061 57.1328 15.1061C57.1328 15.1061 57.1328 15.1061 57.0831 15.1568C57.1328 15.1568 57.1825 15.2075 57.2322 15.2582C57.0334 15.2582 56.8844 15.2582 56.8347 15.2075C56.785 15.1061 56.7353 15.0554 56.6359 14.9541C56.5365 14.802 56.4371 14.7513 56.3378 14.802C56.2384 14.6499 55.9402 14.3457 55.5427 13.8895C55.1948 13.5347 54.9961 13.2812 54.9961 13.1798C54.9464 13.1291 54.8967 13.0784 54.7973 13.0277C54.7476 12.9264 54.6482 12.7743 54.5488 12.5715C54.5488 12.5208 54.4991 12.4701 54.4495 12.4701C54.3998 12.2167 54.2507 12.0139 54.0022 11.8618C54.0519 11.8111 54.0519 11.7604 54.0022 11.7097C53.9028 11.5577 53.7538 11.4056 53.6544 11.2535C53.5053 11.0507 53.4059 10.848 53.4059 10.6959V10.5945C53.4059 10.5945 53.4556 10.5945 53.555 10.5945C53.555 10.5945 53.6047 10.6452 53.6544 10.6959C53.7538 10.6959 53.8532 10.6452 53.9028 10.5945C54.0022 10.6959 54.1016 10.7973 54.2507 11C54.3004 11 54.3501 10.9494 54.3501 10.848C54.3501 10.6959 54.3004 10.6452 54.1513 10.6452L54.201 10.5945L54.2507 10.5438C54.3004 10.5945 54.3501 10.5945 54.3998 10.6452C54.4495 10.6452 54.4495 10.6452 54.4992 10.5945C54.4992 10.5438 54.4992 10.4424 54.4992 10.341C54.3998 10.2397 54.2507 10.189 54.1016 10.189C54.0022 10.189 53.9028 10.189 53.7041 10.2397C53.555 10.2904 53.4059 10.2904 53.3562 10.2904C53.2568 10.2904 53.2072 10.2904 53.1078 10.2397C52.9587 10.1383 52.8096 9.9355 52.7599 9.68204C52.7599 9.68204 52.7102 9.63135 52.6605 9.58066V9.52996C52.6605 9.42858 52.6109 9.37789 52.5115 9.32719C52.4121 9.2765 52.3624 9.22581 52.263 9.22581C51.9649 9.22581 51.617 9.22581 51.1201 9.22581C50.5735 9.22581 50.1759 9.22581 49.9772 9.22581C49.9275 9.22581 49.9275 9.22581 49.9275 9.2765C49.9275 9.58066 49.9275 9.73273 49.9275 9.78343V10.7973C49.9772 11.4056 49.9772 11.7604 49.9772 11.9125C49.9772 11.9125 49.9772 11.9632 49.9275 12.0139C49.9275 12.0646 49.8778 12.1153 49.9275 12.166C49.9772 12.2167 50.0269 12.3687 50.0766 12.5208C50.1263 12.9264 50.1263 13.1291 50.1263 13.2812C50.0766 13.3319 49.9275 13.4333 49.7784 13.5347C49.7784 13.5854 49.7784 13.5854 49.7784 13.5854C50.0766 13.5854 50.4741 13.6361 51.0704 13.7881C51.1201 13.7881 51.1698 13.8388 51.2692 13.8895C51.2692 13.9402 51.2692 14.0416 51.2692 14.1937C51.1698 14.2444 51.1201 14.2951 51.0704 14.2951C50.9213 14.2951 50.5238 14.2444 49.8778 14.143L48.2876 14.0923C48.1883 14.143 48.0392 14.143 47.7907 14.1937C47.4429 14.1937 47.0453 14.1937 46.5484 14.1937C46.5484 14.0923 46.5484 13.9909 46.5484 13.7881C46.6975 13.7374 46.946 13.6361 47.2441 13.5854C47.3932 13.5347 47.5423 13.3826 47.741 13.1798C47.9398 12.9264 47.9895 12.7743 48.0392 12.6222C48.0889 11.9125 48.1386 11.507 48.1386 11.4056V5.72803C48.1386 5.72803 48.1386 5.62664 48.1386 5.52526C48.1386 5.42387 48.1386 5.37318 48.1386 5.32249C48.1386 5.2718 48.1386 5.11972 48.1883 4.86626C48.1883 4.61279 48.238 4.41002 48.238 4.25795C48.238 4.20725 48.238 4.05518 48.1883 3.9031C48.1883 3.70033 48.1386 3.54825 48.1386 3.44687C48.1386 3.29479 48.0889 3.09202 48.0392 2.78786C47.9895 2.73717 47.9398 2.58509 47.8901 2.43302C47.8404 2.23025 47.6417 2.12886 47.2938 2.02748C47.2441 2.02748 47.1944 1.97678 47.0453 1.92609C46.946 1.92609 46.8466 1.92609 46.6478 1.92609C46.5484 1.82471 46.4987 1.72332 46.5981 1.57124C46.7472 1.52055 46.946 1.46986 47.2441 1.46986C48.0392 1.41917 48.4864 1.36847 48.6355 1.36847H49.679C49.679 1.36847 49.8281 1.36847 50.0766 1.31778C50.325 1.26709 50.4741 1.26709 50.4741 1.26709H51.0704C51.1201 1.26709 51.1698 1.26709 51.3189 1.31778C51.4679 1.31778 51.5673 1.36847 51.617 1.36847C51.7164 1.36847 51.8655 1.31778 52.0145 1.31778C52.5115 1.36847 53.1078 1.52055 53.7041 1.67263C53.9525 1.72332 54.3998 2.07817 55.1451 2.68648C55.1451 2.73717 55.1451 2.78786 55.1451 2.83856C55.0458 2.93994 54.8967 3.04133 54.6482 3.1934C54.3998 3.34548 54.2507 3.44687 54.1513 3.54825C54.1513 3.59894 54.201 3.64964 54.3004 3.64964C54.3998 3.64964 54.4495 3.64964 54.5488 3.64964C54.5488 3.59894 54.5985 3.59894 54.6482 3.54825C54.7973 3.49756 54.8967 3.49756 54.9464 3.49756C54.9464 3.59894 55.0458 3.70033 55.0955 3.75102C55.1948 3.70033 55.1948 3.64964 55.1948 3.59894C55.1948 3.49756 55.1451 3.44687 55.0955 3.39617C55.1451 3.39617 55.2445 3.39617 55.2942 3.39617C55.3936 3.44687 55.493 3.44687 55.5924 3.44687C55.6421 3.70033 55.6918 4.00448 55.7415 4.25795C55.7911 4.61279 55.8408 4.91695 55.8408 5.17041C55.8408 5.37318 55.8408 5.57595 55.7911 5.72803C55.7414 6.03218 55.5924 6.43772 55.3439 6.99534C55.1948 7.2488 54.9961 7.60365 54.5985 8.05988C54.5985 8.05988 54.3501 8.26265 53.9028 8.6175C54.0519 8.87096 54.2507 9.22581 54.4992 9.52996C54.6979 9.78343 54.847 10.0369 54.9464 10.2397C55.0458 10.4931 55.1451 10.6452 55.1948 10.7466C55.1948 10.7973 55.2445 10.848 55.2445 10.8987C55.493 11.2535 55.8905 11.8111 56.4371 12.4701C56.4371 12.5208 56.4371 12.5208 56.4371 12.5715C56.6359 12.7236 56.8844 12.9771 57.1825 13.2812C57.3316 13.4333 57.5304 13.6361 57.7291 13.9402C57.5801 13.9402 57.4807 14.0416 57.4807 14.1937C57.4807 14.3457 57.5304 14.3964 57.6794 14.4471C57.6794 14.2444 57.7788 14.143 57.9279 14.143H57.9776C57.9776 14.143 58.1267 14.1937 58.3254 14.3457C58.6733 14.4978 58.9714 14.7006 59.3193 14.8527C59.5677 14.8527 59.7665 14.9034 60.015 14.9034ZM54.1016 5.52526C53.9525 5.47457 53.9028 5.42387 53.9028 5.32249V4.51141C53.9028 4.46072 53.9028 4.46072 53.9028 4.41002C53.9028 4.35933 53.9028 4.35933 53.8532 4.30864C53.8035 3.95379 53.6544 3.59894 53.4059 3.1934C53.1078 2.73717 52.7599 2.48371 52.4121 2.38232C52.3624 2.33163 52.3127 2.33163 52.2133 2.28094C51.7164 2.17955 51.4182 2.12886 51.3686 2.12886H50.7226C50.4741 2.12886 50.2753 2.17955 50.0766 2.23025C50.0766 2.23025 49.9772 2.28094 49.9275 2.43302C49.9772 2.73717 49.9772 2.88925 49.9772 2.93994V2.99063V3.09202V4.15656C49.9772 4.20725 49.9772 4.20725 49.9275 4.30864C49.8778 4.35933 49.8778 4.41002 49.8778 4.46072C49.9275 4.5621 49.9275 4.71418 49.9772 4.81556C50.0269 4.96764 50.0269 5.06903 49.9772 5.17041C49.8778 5.42387 49.8778 5.72803 49.9275 6.13357C49.9275 6.03218 49.9275 6.18426 49.9275 6.48842V7.60365C49.9275 7.65434 49.9275 7.75573 49.9275 7.85711C49.9275 7.9078 49.9275 8.00919 49.9275 8.05988C49.9275 8.11057 49.9772 8.21196 50.0269 8.31334C50.1263 8.36404 50.325 8.41473 50.5238 8.46542L51.9649 8.51611C52.1139 8.46542 52.3624 8.36404 52.6605 8.21196C52.7599 8.16127 52.909 8.11057 53.1078 8.00919C53.4059 7.70504 53.6047 7.45157 53.7041 7.19811C53.8035 6.99534 53.9028 6.74188 53.9525 6.38703C53.9525 6.28565 53.9525 6.13357 54.0022 5.9308C54.0022 5.82941 54.0519 5.72803 54.0519 5.62664C54.0022 5.57595 54.0519 5.52526 54.1016 5.52526ZM53.6544 10.3917C53.6047 10.4424 53.555 10.4931 53.5053 10.4931C53.5053 10.4424 53.555 10.3917 53.6047 10.3917H53.6544Z" fill="#EA901E"/>
<path fill-rule="evenodd" clip-rule="evenodd" d="M60.5616 5.17032C60.5616 5.22101 60.5119 5.3224 60.5119 5.47448C60.5119 5.47448 60.4125 5.52517 60.2137 5.57586C60.0646 5.62655 60.0149 5.67725 59.9653 5.82932C59.9156 5.88002 59.9156 5.9814 59.8659 6.08279C59.8659 6.13348 59.8162 6.38694 59.7168 6.89387V10.5437C59.7168 10.6451 59.6671 10.7465 59.6671 10.7465C59.6671 10.7465 59.6671 10.7972 59.7168 10.8986V12.0138C59.6671 12.1659 59.6671 12.3687 59.7168 12.6221C59.7665 12.9263 59.7665 13.1797 59.8659 13.3825C59.8659 13.4332 59.9653 13.5346 60.0646 13.5853C60.2137 13.7374 60.4125 13.788 60.6112 13.788C60.6112 13.8387 60.6112 13.9401 60.5616 14.0415H59.9653C59.9653 14.0415 59.9156 14.0415 59.8162 14.0415C59.7168 14.0415 59.6671 14.0415 59.6671 14.0415C59.6671 14.0415 59.6174 14.0415 59.518 14.0415C59.4186 14.0415 59.369 14.0415 59.369 14.0415C59.369 14.0415 59.3193 14.0415 59.2696 14.0415C59.2199 14.0415 59.1702 14.0415 59.1702 14.0415H59.1205C59.0708 14.0415 59.0708 14.0415 59.0708 14.0415L57.9776 14.0922C57.8782 14.0922 57.8285 14.0415 57.8285 13.9401C57.8285 13.8387 57.8285 13.788 57.8782 13.7374C57.9776 13.6867 58.077 13.6867 58.226 13.636C58.3751 13.5853 58.4248 13.5346 58.4745 13.4332C58.4745 13.3825 58.5242 13.2811 58.5242 13.1797C58.5739 13.1797 58.6236 13.1797 58.723 13.2304C58.7726 13.0277 58.7726 12.9263 58.7726 12.8756C58.7726 12.8249 58.7726 12.7742 58.723 12.6728C58.7726 12.5714 58.7726 12.47 58.723 12.4193C58.723 12.3687 58.6733 12.2673 58.6236 12.1659C58.5739 12.0645 58.5739 12.0138 58.5739 12.0138C58.5739 12.0645 58.6236 11.9124 58.6733 11.6083C58.6733 11.5576 58.6733 11.5069 58.6236 11.4562C58.6733 11.3041 58.723 11.2534 58.723 11.2027C58.723 11.2027 58.723 11.0507 58.6733 10.7465C58.6733 10.7465 58.6733 10.6958 58.6236 10.5944C58.6236 10.5437 58.5739 10.493 58.5739 10.493C58.5739 10.493 58.5739 10.4423 58.6236 10.3916C58.6236 10.3916 58.6236 10.3916 58.6236 10.341V9.47918C58.6236 9.47918 58.6236 9.42849 58.6236 9.32711C58.6236 9.27641 58.6236 9.22572 58.6236 9.17503V9.12434V9.07364C58.6236 9.02295 58.6236 8.76949 58.6236 8.36395C58.6236 8.31326 58.6236 8.16118 58.6236 7.95841V7.09664C58.6236 7.04594 58.6236 6.94456 58.5739 6.84317C58.5739 6.79248 58.5739 6.6911 58.5242 6.53902C58.5242 6.48833 58.5242 6.38694 58.4745 6.23486C58.4248 6.18417 58.4248 6.13348 58.3751 6.03209C58.3751 5.9814 58.3254 5.93071 58.3254 5.82932C58.2757 5.67725 58.1763 5.57586 58.1267 5.52517C58.0273 5.47448 57.9279 5.42378 57.7788 5.37309C57.7788 5.3224 57.8285 5.22101 57.8285 5.11963H57.8782C57.8782 5.11963 57.9279 5.11963 57.9776 5.11963C58.0273 5.11963 58.077 5.11963 58.077 5.11963H60.0646L60.5616 5.17032Z" fill="#EA901E"/>
<path fill-rule="evenodd" clip-rule="evenodd" d="M71.146 3.64941C71.0467 3.64941 70.8976 3.70011 70.7485 3.7508C70.5497 3.80149 70.4007 3.95357 70.3013 4.15634C70.1522 4.46049 70.0528 4.81534 70.0031 5.1195C69.9534 5.67711 69.9037 6.08265 69.9037 6.4375C69.9037 6.4375 69.9037 6.69096 69.9534 7.19789C69.9534 7.65412 70.0031 7.90758 70.0031 7.95828V9.32697C70.0031 9.32697 70.0031 9.37767 70.0031 9.47905C70.0031 9.58044 70.0031 9.63113 70.0031 9.73251C69.9534 10.4422 69.9534 10.7971 69.9534 10.8984C69.9534 10.9491 69.9534 11.0505 70.0031 11.2026C70.0031 11.3547 70.0528 11.4054 70.0528 11.4561V14.1428C70.0528 14.1935 70.0528 14.1935 70.0528 14.1935C69.705 14.2441 69.5559 14.2948 69.6056 14.2948C69.4068 14.2948 69.2577 14.2441 69.2081 14.1935C68.8602 13.8386 68.3633 13.1796 67.7173 12.2164C67.6179 12.0137 67.4191 11.7602 67.1707 11.4054C66.9719 11.1519 66.6738 10.7971 66.3259 10.3408C66.2265 10.1887 66.0775 9.88459 65.8787 9.58044C65.4315 8.97213 64.7855 8.00897 63.9904 6.79235C63.891 6.69096 63.7419 6.53889 63.5432 6.33612C63.5432 6.28542 63.5432 6.23473 63.4935 6.18404C63.4438 6.08265 63.3444 5.93058 63.1953 5.67711C63.0959 5.72781 63.0463 5.82919 63.0463 5.93058C63.0463 5.93058 63.0959 6.23473 63.1456 6.84304C63.1456 6.89373 63.1456 6.94443 63.1456 6.99512C63.1456 7.04581 63.1456 7.0965 63.1456 7.1472C63.1456 7.40066 63.1456 7.75551 63.1456 8.21174C63.1456 8.71866 63.1456 8.92143 63.1456 8.92143V10.1381C63.1456 10.1887 63.1456 10.4422 63.1456 10.9998C63.1456 11.5574 63.1456 11.8616 63.1456 11.8616C63.1456 12.4192 63.1953 12.8248 63.2947 13.0782C63.4438 13.5344 63.7916 13.7372 64.2389 13.7879C64.2389 13.7879 64.2886 13.7879 64.3382 13.8386C64.3382 13.94 64.3382 14.0414 64.2886 14.0921H61.7046C61.6549 14.0921 61.6052 14.0921 61.4064 14.1428C61.2573 14.1935 61.158 14.1935 61.1083 14.1935H61.0089C60.9592 14.1428 60.9592 14.0921 60.9592 14.0921C60.9592 13.94 61.0089 13.8386 61.1083 13.7879C61.2573 13.7372 61.4064 13.6358 61.6549 13.5345C61.9033 13.3824 62.0524 13.1289 62.1021 12.7741C62.2015 11.9123 62.2512 11.4054 62.2015 11.2533C62.1518 11.1519 62.1518 11.1012 62.2015 11.0505C62.2015 11.0505 62.2015 10.9998 62.2512 10.9491C62.2512 10.9491 62.2512 10.8984 62.2015 10.8477C62.2015 10.7971 62.2015 10.6957 62.2015 10.5436C62.2015 10.3915 62.2015 10.2394 62.2015 10.1887C62.2015 10.0874 62.2015 9.98598 62.1518 9.78321C62.1021 9.58044 62.1021 9.42836 62.1021 9.37767C62.1021 9.32697 62.1021 9.22559 62.1021 9.1242C62.1021 8.97213 62.1021 8.87074 62.1021 8.82005C62.1021 8.82005 62.0524 8.76936 62.0524 8.66797L62.1021 8.61728C62.1021 8.56659 62.1518 8.51589 62.1518 8.41451V8.36382C62.1021 7.70481 62.0524 7.24858 62.0524 7.04581V5.82919C62.0027 5.1195 62.0027 4.71396 62.0027 4.56188C62.0027 4.56188 62.0027 4.51119 62.0027 4.46049C62.0027 4.4098 62.0027 4.35911 62.0027 4.30842C61.6549 3.90288 61.2573 3.64941 60.7107 3.64941C60.661 3.64941 60.6113 3.64941 60.5617 3.64941L60.512 3.59872V3.39595C60.5617 3.34526 60.7107 3.29457 60.9095 3.29457C60.9095 3.29457 61.1083 3.29457 61.5058 3.34526C61.8536 3.34526 62.0524 3.39595 62.1021 3.39595C62.1021 3.39595 62.3009 3.39595 62.6487 3.34526C62.9966 3.34526 63.1953 3.29457 63.1953 3.29457C63.2947 3.29457 63.3941 3.29457 63.3941 3.29457C63.4438 3.34526 63.5929 3.49734 63.8413 3.85218C64.2389 4.51119 64.8849 5.52504 65.6799 6.89373C65.829 7.1472 66.0775 7.50204 66.4253 8.00897C66.4253 8.4652 66.4253 8.61728 66.4253 8.41451C66.4253 8.61728 66.5247 8.76936 66.6241 8.76936C66.6241 8.76936 66.6738 8.76936 66.7235 8.71866C66.7731 8.66797 66.8228 8.66797 66.8725 8.66797C66.9222 8.66797 67.0216 8.76936 67.121 8.97213C67.1707 9.07351 67.2204 9.1749 67.2701 9.27628C67.6179 9.63113 67.8664 9.88459 67.9161 10.0367C67.9161 10.1381 67.9658 10.2901 68.0155 10.4929C68.0651 10.5436 68.0651 10.5943 68.1148 10.5943L68.2142 10.5436L68.2639 10.4929C68.413 10.645 68.5621 10.8984 68.8105 11.2533C68.9099 11.2026 68.9099 11.1519 68.9099 11.1012C68.9099 11.0505 68.9099 11.0505 68.8602 10.9491C68.8602 10.8984 68.8105 10.8477 68.8105 10.7971V9.8339C68.8105 9.78321 68.8105 9.78321 68.8105 9.68182C68.8105 9.63113 68.8105 9.58044 68.8105 9.47905C68.8105 9.37767 68.8602 9.22559 68.8602 9.02282C68.8602 8.87074 68.8105 8.61728 68.7608 8.26243C68.7608 8.21174 68.7608 8.11035 68.7608 8.00897C68.7608 7.85689 68.8105 7.8062 68.8105 7.8062C68.8105 7.8062 68.8105 7.75551 68.8105 7.65412C68.8105 7.60343 68.8105 7.55274 68.7608 7.50204C68.7608 7.40066 68.7608 7.24858 68.7608 7.0965C68.7608 6.89373 68.7608 6.74166 68.7608 6.64027C68.7608 6.58958 68.7608 6.53889 68.7111 6.48819C68.7111 6.4375 68.6614 6.38681 68.6614 6.33612C68.6614 6.33612 68.6614 6.23473 68.6614 6.08265C68.6614 6.03196 68.6614 5.93058 68.6614 5.82919C68.6614 5.67711 68.6118 5.57573 68.6118 5.52504C68.6118 5.47434 68.6118 5.42365 68.6614 5.37296C68.6614 5.32227 68.6614 5.22088 68.6614 5.22088C68.6118 4.96742 68.5621 4.61257 68.5124 4.15634C68.4627 3.85218 68.1645 3.64941 67.6676 3.54803C67.6676 3.44664 67.6676 3.34526 67.6179 3.24387C67.6676 3.19318 67.8664 3.14249 68.1645 3.14249L69.5062 3.19318C69.6056 3.19318 69.7547 3.19318 69.9534 3.14249C70.1522 3.14249 70.3013 3.0918 70.4007 3.0918C70.5497 3.0918 70.6988 3.0918 70.8479 3.14249V3.64941H71.146ZM68.413 10.2901L68.3633 10.3915L68.3136 10.3408L68.3633 10.1381C68.3633 10.1381 68.3633 10.1887 68.413 10.2394V10.2901Z" fill="#EA901E"/>
<path fill-rule="evenodd" clip-rule="evenodd" d="M79.5934 3.54798C79.5934 3.59868 79.5934 3.64937 79.5934 3.70006C79.5934 3.80145 79.5437 4.05491 79.494 4.35906C79.4443 4.66322 79.3946 4.91668 79.3946 5.06876C79.3946 5.17014 79.3946 5.22084 79.3946 5.27153C79.3449 5.37291 79.3449 5.52499 79.3449 5.67707C79.3449 5.67707 79.3449 5.72776 79.3946 5.82915C79.3946 5.87984 79.4443 5.93053 79.4443 5.98122C79.4443 6.03192 79.3946 6.08261 79.3946 6.1333C79.3946 6.18399 79.3946 6.33607 79.4443 6.64023C79.2952 6.7923 79.1958 6.843 79.0965 6.843C79.0468 6.843 78.9971 6.7923 78.9474 6.74161C78.9971 6.38676 78.9971 6.18399 78.9971 6.1333C78.9971 6.03192 78.9474 5.93053 78.8977 5.72776C78.7983 5.4743 78.5995 5.22084 78.3014 4.91668C78.202 4.8153 77.9039 4.66322 77.5063 4.46045C77.4566 4.46045 77.3075 4.40976 77.0094 4.35906C76.8106 4.30837 76.5125 4.30837 76.1646 4.30837C75.0714 4.30837 74.2267 4.61253 73.6303 5.22084C73.531 5.27153 73.4316 5.37291 73.2825 5.4743C72.8353 6.18399 72.5371 6.843 72.4874 7.502C72.4377 7.75546 72.4377 8.21169 72.4377 8.8707V9.42831C72.4377 9.37762 72.4874 9.5297 72.5371 9.88455C72.5371 10.0366 72.5868 10.2901 72.5868 10.5942C72.6365 10.6449 72.6862 10.6956 72.7359 10.8477C72.7359 10.8984 72.7359 10.9998 72.7856 11.1519C72.885 11.2532 72.9844 11.4053 73.1334 11.6588C73.1334 11.7095 73.1831 11.8109 73.2328 11.9629C73.4813 12.4192 73.8291 12.8247 74.3757 13.1289C74.6242 13.2809 74.823 13.3823 75.0714 13.433C76.1149 13.6865 76.8106 13.8386 77.1088 13.8386C77.2579 13.8386 77.4069 13.8386 77.5063 13.7879C77.556 13.7879 77.6554 13.7372 77.8045 13.6865C77.8542 13.433 77.8542 13.3316 77.8542 13.3316C77.8542 13.2302 77.8045 13.1796 77.7548 13.1796C77.6554 13.1289 77.6057 13.0782 77.556 13.0275C77.5063 12.9261 77.5063 12.774 77.556 12.5206C77.556 12.5206 77.556 12.0643 77.556 11.1519C77.5063 10.797 77.4566 10.5435 77.4069 10.3915C77.3572 10.3408 77.3075 10.2901 77.2579 10.2394C77.1585 9.93524 76.9597 9.73247 76.6615 9.68178C76.5125 9.63108 76.264 9.63108 75.8665 9.63108C75.8665 9.63108 75.8168 9.58039 75.7671 9.58039V9.12416C75.9162 9.07347 76.1149 9.07347 76.4131 9.07347C76.4628 9.07347 76.6119 9.07347 77.0094 9.12416C77.3572 9.17485 77.556 9.17485 77.6057 9.17485C77.6057 9.17485 77.6554 9.17485 77.7548 9.12416C77.8045 9.07347 77.8542 9.07347 77.9038 9.07347C78.2517 9.02277 78.4008 9.02277 78.4505 9.02277C79.1958 9.02277 79.5437 9.02277 79.4443 9.02277V9.37762C79.4443 9.37762 79.3946 9.47901 79.3449 9.58039C79.2952 9.68178 79.2455 9.78316 79.2455 9.83385C79.1462 10.2394 79.0965 10.6449 79.0965 11.0505C79.0965 11.5574 79.0468 11.9122 79.0468 12.115C79.0468 12.5206 79.0965 13.0275 79.1461 13.7372C78.9474 13.8386 78.5995 13.9399 78.1523 14.092C77.7051 14.1934 77.3572 14.2948 77.1088 14.2948C77.0094 14.2948 76.91 14.2948 76.7609 14.2948C76.5125 14.3455 76.3634 14.3962 76.264 14.3962C76.264 14.3962 76.2143 14.3962 76.1646 14.3962C76.1149 14.3962 76.0652 14.3455 76.0652 14.3455C75.5186 14.2948 75.0217 14.2441 74.6739 14.1934C74.5248 14.1427 74.326 14.092 74.0279 13.9906C73.4813 13.8893 72.885 13.4837 72.1893 12.8754C71.4936 12.2164 71.0961 11.6081 70.947 10.9998C70.8973 10.8477 70.8476 10.6956 70.7482 10.3915C70.6985 10.2901 70.6488 10.1887 70.5991 9.98593C70.5494 9.68178 70.4998 9.47901 70.4998 9.27624C70.4998 9.27624 70.4998 9.17485 70.5495 8.97208C70.5991 8.76931 70.5991 8.61723 70.5495 8.56654C70.5495 8.46516 70.4998 8.36377 70.4998 8.26239C70.4998 8.05962 70.5494 7.80615 70.6488 7.45131C70.7482 6.99507 70.8476 6.69092 70.8476 6.53884C71.3942 5.52499 71.6924 5.01807 71.7917 5.01807L71.8414 5.06876L71.8911 5.11945C71.9905 5.11945 72.0402 5.11945 72.0899 5.06876C72.0899 5.01807 72.1396 4.91668 72.239 4.7646C72.7359 4.15629 73.034 3.85214 73.1334 3.85214H73.1831H73.2328C73.2328 3.85214 73.3322 3.80145 73.3819 3.75075C73.4813 3.70006 73.531 3.64937 73.5807 3.64937C73.5807 3.64937 73.6303 3.64937 73.68 3.70006C73.7297 3.70006 73.7297 3.75075 73.7794 3.75075C73.8291 3.75075 74.0279 3.70006 74.5248 3.54798C74.972 3.4466 75.2205 3.34521 75.2702 3.34521H77.3572C77.3572 3.34521 77.6057 3.34521 78.1026 3.39591C78.5498 3.4466 78.7983 3.4466 78.848 3.4466C78.848 3.4466 78.9474 3.4466 79.1461 3.4466C79.3946 3.54798 79.494 3.54798 79.5934 3.54798Z" fill="#EA901E"/>
<path fill-rule="evenodd" clip-rule="evenodd" d="M87.9915 15.055C87.9915 15.3085 87.7927 15.9168 87.4449 16.8799C87.3952 16.9306 87.2958 17.1334 87.1467 17.3362C86.6498 17.9952 86.2522 18.35 85.8547 18.5021C85.7553 18.5528 85.6559 18.6542 85.4572 18.7049C84.9106 18.9076 84.2149 19.009 83.3204 19.009C83.072 19.009 82.8732 19.009 82.6247 18.9583C82.6247 18.8569 82.6247 18.7049 82.6744 18.5528C82.4757 18.35 82.2769 18.2486 82.0781 18.2486C81.929 18.2486 81.8297 18.2993 81.7303 18.4514C81.8297 18.5021 81.929 18.5528 82.0284 18.5528C82.0284 18.6542 81.9787 18.7049 81.929 18.7556C81.8297 18.8062 81.78 18.8062 81.6806 18.7556C81.6309 18.7556 81.2334 18.6035 80.488 18.2993C80.3886 18.2486 80.2892 18.2486 80.1401 18.1979C79.9911 18.1472 79.8917 18.0459 79.7923 17.9445L79.6929 17.3362C79.6432 17.0827 79.5935 16.6265 79.4941 16.0689C79.4941 15.6633 79.4941 14.396 79.4941 14.396C79.4941 14.5481 79.4941 14.396 79.4941 14.396C79.5438 14.396 79.8917 14.396 79.9414 14.4467C79.9414 14.9029 80.0407 14.8522 80.1898 15.714C80.2395 15.8154 80.2892 15.9168 80.3886 16.1195C80.5874 16.5251 80.8358 16.8799 81.2334 17.0827C81.4321 17.1841 81.78 17.3362 82.2769 17.4882C82.3763 17.5389 82.6247 17.5896 82.9726 17.691C83.221 17.7417 83.5689 17.7924 84.0161 17.8431C84.1652 17.6403 84.3639 17.5389 84.6124 17.4376C84.9603 17.3869 85.2087 17.2855 85.3578 17.1841C85.4572 17.1334 85.5566 16.9813 85.6062 16.7785C85.7056 16.5758 85.7553 16.373 85.805 16.2209C85.8547 16.0689 85.9044 15.8154 86.0038 15.4605C86.0038 15.4099 86.0038 15.3085 86.0038 15.2071C86.0038 14.9029 85.9541 14.5988 85.805 14.2439C85.6559 13.8891 85.4572 13.6356 85.2584 13.4835C85.2087 13.3822 85.1093 13.2808 85.0099 13.1287C84.7118 12.9259 84.2646 12.6725 83.718 12.3683C83.6186 12.2669 83.4198 12.1148 83.1713 11.9628C82.3763 11.6079 81.6806 11.101 81.0843 10.5434C80.8358 10.2899 80.6371 9.98575 80.4383 9.58021C80.4383 9.52952 80.4383 9.42814 80.3886 9.32675C80.3389 9.27606 80.2892 9.22537 80.2395 9.17467C80.2395 9.17467 80.2395 9.12398 80.1898 9.12398C80.1898 8.9719 80.1898 8.81983 80.1898 8.66775C80.1898 8.46498 80.1401 8.3129 80.0407 8.21152C80.0407 8.00875 80.0408 7.70459 80.0904 7.29905C80.0408 7.29905 80.0408 7.24836 79.9911 7.19767C79.9911 7.14697 79.9911 7.04559 79.9911 6.9442C80.0408 6.89351 80.0408 6.84282 80.0904 6.79213C80.0904 6.79213 80.1401 6.48797 80.2892 5.93035C80.3886 5.57551 80.5377 5.27135 80.8358 5.01789C80.8855 5.06858 80.8855 5.11927 80.9849 5.22066C80.9849 5.06858 81.0843 4.9165 81.1837 4.66304C81.6806 4.15612 82.1775 3.75058 82.6744 3.44642C82.8235 3.44642 83.0223 3.44642 83.3204 3.39573C83.6186 3.39573 84.0161 3.29434 84.5627 3.24365C84.5627 3.24365 84.6124 3.29434 84.6621 3.34504C84.9603 3.39573 85.3578 3.44642 85.9541 3.49711C86.3516 3.49711 86.6001 3.49711 86.6995 3.49711C87.097 3.44642 87.2461 3.39573 87.1964 3.39573C87.2958 3.39573 87.3952 3.39573 87.4449 3.44642C87.4449 3.44642 87.3952 4.86581 87.2461 7.70459C87.1467 7.75528 87.0473 7.75528 86.8485 7.75528C86.7989 7.45113 86.7492 7.24836 86.7492 7.09628C86.7492 6.64005 86.6498 6.18382 86.451 5.77828C86.2026 5.32204 85.9044 4.9672 85.5069 4.81512C85.2087 4.66304 84.8112 4.61235 84.3639 4.61235C83.867 4.61235 83.5192 4.66304 83.221 4.81512C83.1713 4.81512 83.1217 4.81512 83.0223 4.81512C82.7738 4.9672 82.5253 5.22066 82.3266 5.52481C82.0781 5.87966 81.9787 6.18382 81.9787 6.43728C81.9787 6.48797 81.9787 6.58936 82.0284 6.74143C82.0781 6.89351 82.0781 6.9949 82.0781 7.09628C82.0781 7.60321 82.3266 8.11013 82.7738 8.61706C82.9726 8.81983 83.3204 9.12398 83.867 9.42814C84.1155 9.52952 84.4136 9.6816 84.8609 9.93506C86.0535 10.6448 86.8982 11.3545 87.3455 12.0641C87.3952 12.1655 87.4449 12.3683 87.5939 12.6218C87.6933 12.8245 87.743 13.1287 87.8424 13.5342C87.9915 14.1932 88.0412 14.6495 87.9915 15.055Z" fill="#EA901E"/>
<path fill-rule="evenodd" clip-rule="evenodd" d="M41.3306 6.3873C41.3306 6.48868 41.3306 6.59007 41.3306 6.64076C41.3306 6.69145 41.2809 6.74214 41.2809 6.84353C41.2809 6.94491 41.2809 7.0463 41.2312 7.14768C41.1815 7.19838 41.1815 7.24907 41.0821 7.35045C41.0821 7.40115 41.0324 7.50253 40.933 7.60392C40.8833 7.65461 40.784 7.75599 40.6846 7.90807L40.6349 7.95876C40.6349 8.00946 40.5852 8.00946 40.4858 8.06015C40.1877 8.26292 39.8895 8.3643 39.5914 8.3643H39.1938C38.995 8.3643 38.846 8.31361 38.7466 8.26292C38.6969 8.26292 38.6969 8.26292 38.6472 8.21223C38.5478 8.16153 38.4484 8.11084 38.2994 8.00946C38.1006 7.85738 37.9515 7.7053 37.8024 7.45184C37.703 7.29976 37.6534 7.14768 37.554 6.94491C37.5043 6.74214 37.4546 6.59007 37.4546 6.43799C37.4546 6.23522 37.4546 5.98176 37.4546 5.77899C37.4546 5.72829 37.5043 5.72829 37.5043 5.6776C37.5043 5.62691 37.554 5.52552 37.554 5.42414C37.6037 5.37345 37.6534 5.22137 37.7031 5.11998C37.7031 5.11998 37.7031 5.06929 37.7031 5.0186H37.7527C37.7527 4.96791 37.7527 4.96791 37.7527 4.91721C37.8024 4.91721 37.8024 4.86652 37.8521 4.86652C37.8521 4.81583 37.9018 4.76514 37.9515 4.71444C38.0509 4.66375 38.2497 4.56237 38.4981 4.41029C38.5478 4.3596 38.6472 4.3596 38.7466 4.3089C38.995 4.25821 39.1441 4.20752 39.2435 4.20752H39.4423C39.641 4.20752 39.7901 4.20752 39.8895 4.25821C39.9392 4.25821 40.0883 4.3596 40.3367 4.41029C40.3864 4.46098 40.4858 4.51167 40.5852 4.56237C40.7343 4.66375 40.8833 4.81583 40.9827 5.0186C41.0821 5.17068 41.1815 5.32275 41.1815 5.47483C41.1815 5.47483 41.2312 5.52552 41.2312 5.57622C41.2809 5.6776 41.2809 5.88037 41.2809 6.13383V6.18453C41.3306 6.3366 41.3306 6.3366 41.3306 6.3873ZM40.7343 6.43799C40.7343 6.18453 40.6846 5.93106 40.5852 5.72829C40.4858 5.42414 40.3864 5.22137 40.2373 5.06929C40.0386 4.86652 39.8398 4.71444 39.641 4.66375C39.4423 4.61306 39.2932 4.61306 39.1938 4.61306C39.0447 4.61306 38.8957 4.66375 38.7963 4.71444C38.7963 4.71444 38.6969 4.76514 38.5478 4.86652L38.4484 4.96791H38.3987C38.349 5.0186 38.2994 5.11998 38.2497 5.17068C38.2497 5.22137 38.2497 5.22137 38.2 5.27206C38.1503 5.32275 38.1503 5.37345 38.1006 5.47483C38.1006 5.57622 38.0509 5.6776 38.0012 5.82968C38.0012 5.88037 38.0012 5.98176 38.0012 6.08314V6.13383V6.18453C38.0509 6.3366 38.0509 6.53937 38.1006 6.74214V6.79284C38.1006 6.84353 38.1503 6.84353 38.1503 6.89422C38.1503 6.94491 38.1503 6.94491 38.1503 6.99561C38.2497 7.14768 38.2497 7.24907 38.2497 7.24907C38.2994 7.35045 38.3987 7.45184 38.4981 7.55322C38.4981 7.55322 38.4981 7.60392 38.5478 7.7053C38.5478 7.7053 38.5975 7.7053 38.6472 7.7053C38.7466 7.80669 38.7963 7.85738 38.846 7.90807C38.8957 7.95876 39.0447 7.95876 39.2435 8.00946C39.3926 8.00946 39.5417 8.00946 39.641 8.00946C39.6907 8.00946 39.6907 8.00946 39.7404 7.95876C39.7901 7.95876 39.8895 7.90807 39.9889 7.85738C40.0386 7.80669 40.0386 7.80669 40.0883 7.75599C40.1877 7.7053 40.2373 7.65461 40.287 7.55322C40.3367 7.45184 40.3864 7.35045 40.4361 7.29976C40.4361 7.29976 40.4858 7.24907 40.4858 7.19838C40.4858 7.14768 40.4858 7.09699 40.4858 7.0463L40.5355 6.99561C40.5355 6.94491 40.5355 6.84353 40.5852 6.69145C40.7343 6.59007 40.7343 6.48868 40.7343 6.43799Z" fill="#EA901E"/>
<path fill-rule="evenodd" clip-rule="evenodd" d="M44.9083 4.35889C44.9083 4.46027 44.9083 4.71373 44.9083 5.22066C44.9083 5.27135 44.8586 5.32204 44.8089 5.32204C44.8089 5.32204 44.7592 5.32204 44.7096 5.32204C44.7096 5.16997 44.6599 5.06858 44.6599 5.01789C44.6102 4.9165 44.5605 4.81512 44.4611 4.76443C44.4114 4.76443 44.2126 4.76443 43.9145 4.76443H43.4176C43.3182 4.76443 43.2685 4.86581 43.2685 5.06858C43.2685 5.06858 43.2685 5.16997 43.3182 5.42343C43.3182 5.47412 43.3182 5.57551 43.3182 5.67689C43.3182 5.82897 43.2685 5.93035 43.2685 5.98105C43.2685 6.08243 43.2685 6.13312 43.3182 6.23451H43.7157C43.7157 6.23451 43.7654 6.23451 43.8151 6.23451C43.8648 6.23451 43.9145 6.23451 43.9145 6.23451H44.2623C44.4114 6.23451 44.5108 6.13312 44.6102 5.98105C44.6102 5.93035 44.6102 5.93035 44.6599 5.82897C44.6599 5.82897 44.7096 5.77828 44.8089 5.82897C44.8089 5.87966 44.8089 5.98105 44.8586 6.13312C44.8586 6.2852 44.8089 6.58936 44.8089 7.04559C44.8089 7.09628 44.7592 7.14697 44.6599 7.09628C44.6599 6.9949 44.6102 6.9442 44.6102 6.84282C44.5605 6.74143 44.5108 6.69074 44.4611 6.64005C44.4114 6.64005 44.312 6.64005 44.1132 6.64005H43.666C43.666 6.64005 43.6163 6.64005 43.5169 6.64005C43.4672 6.64005 43.4176 6.64005 43.3679 6.69074C43.3679 6.74143 43.3679 6.79213 43.3679 6.89351C43.3679 6.89351 43.3679 6.9949 43.3182 7.09628C43.3182 7.19767 43.2685 7.24836 43.2685 7.29905C43.2685 7.34974 43.3182 7.34974 43.3182 7.40044C43.3182 7.45113 43.3182 7.50182 43.3182 7.55251C43.3182 7.6539 43.3182 7.70459 43.3182 7.75528C43.3182 7.90736 43.3679 8.05944 43.4672 8.16082C43.4672 8.16082 43.6163 8.21152 43.9145 8.36359C43.8648 8.41429 43.8151 8.46498 43.7654 8.46498C43.7654 8.46498 43.7157 8.46498 43.666 8.46498C43.6163 8.46498 43.6163 8.46498 43.6163 8.46498C43.4176 8.46498 43.2188 8.46498 42.9703 8.41429C42.8213 8.41429 42.7219 8.41429 42.6722 8.41429C42.6225 8.41429 42.6225 8.46498 42.5728 8.46498C42.5728 8.46498 42.5231 8.46498 42.4734 8.46498C42.4237 8.46498 42.374 8.41429 42.374 8.41429C42.374 8.36359 42.4237 8.3129 42.5231 8.26221C42.6225 8.21152 42.6722 8.16082 42.6722 8.11013C42.7219 7.95805 42.7716 7.80598 42.7716 7.70459V6.9442C42.7716 6.9442 42.7716 6.89351 42.7716 6.74143C42.7716 6.58936 42.7716 6.48797 42.7716 6.38659C42.7716 6.38659 42.7716 6.33589 42.7716 6.2852C42.7716 6.23451 42.7716 6.18382 42.7716 6.13312C42.7716 6.08243 42.7716 6.03174 42.7219 5.98105C42.7716 5.87966 42.8213 5.72758 42.8213 5.6262C42.8213 5.47412 42.7716 5.32204 42.7219 5.11927C42.7219 5.06858 42.7219 5.01789 42.7219 4.9672C42.7219 4.9165 42.7219 4.9165 42.7219 4.86581C42.6722 4.76443 42.6225 4.71373 42.5728 4.61235C42.5728 4.61235 42.5231 4.56166 42.4237 4.56166C42.4237 4.51096 42.4237 4.51096 42.4237 4.40958C42.4237 4.40958 42.5231 4.40958 42.8213 4.40958C43.2685 4.40958 43.9145 4.40958 44.7592 4.40958C44.6599 4.35889 44.7592 4.35889 44.9083 4.35889Z" fill="#EA901E"/>
<path fill-rule="evenodd" clip-rule="evenodd" d="M38.5978 9.93506C38.5481 9.98575 38.5481 9.98575 38.4984 9.98575C38.4984 9.93506 38.5481 9.93506 38.5481 9.93506C38.4984 9.83367 38.4984 9.78298 38.4487 9.73229C38.399 9.6816 38.2996 9.6309 38.2002 9.58021H38.1505C38.1505 9.58021 38.1008 9.58021 38.0512 9.58021C38.0015 9.58021 37.9518 9.58021 37.9518 9.58021H37.9021H37.8524C37.8027 9.58021 37.753 9.58021 37.7033 9.58021C37.6536 9.58021 37.6039 9.58021 37.5045 9.58021L37.3555 9.6309L37.3058 9.6816C37.3058 9.73229 37.3058 9.73229 37.3058 9.78298C37.3058 9.83367 37.2561 9.88437 37.2561 9.98575C37.2561 10.0364 37.2561 10.1378 37.2561 10.2392C37.2561 10.2899 37.2561 10.3406 37.2561 10.442V10.7968C37.2561 10.8475 37.2561 10.8475 37.2561 10.8982L37.2064 10.9489L37.1567 10.9996L37.2064 11.0503V11.101C37.2064 11.101 37.2064 11.1517 37.1567 11.1517C37.1567 11.1517 37.1567 11.2024 37.2064 11.2531C37.2064 11.3038 37.2064 11.3544 37.2064 11.4051C37.2064 11.4558 37.1567 11.5065 37.1567 11.5065C37.1567 11.5572 37.1567 11.5572 37.1567 11.6079C37.1567 11.6586 37.1567 11.7093 37.1567 11.7093C37.1567 11.76 37.1567 11.76 37.1567 11.8107V11.8614H37.2064V11.9121C37.2064 11.9628 37.1567 12.0134 37.1567 12.1148C37.1567 12.1148 37.1567 12.2162 37.2064 12.4697C37.2064 12.5204 37.2064 12.5711 37.2064 12.6725C37.2064 12.7231 37.2561 12.8245 37.2561 12.8752L37.3058 12.9259C37.3058 12.9766 37.3555 13.0273 37.4052 13.078C37.4549 13.078 37.4548 13.1287 37.5045 13.1287C37.5542 13.1287 37.6039 13.1287 37.7033 13.1287V13.1794H37.1567C37.1567 13.1794 37.107 13.1794 37.0573 13.1794C37.0076 13.1794 36.9579 13.1794 36.9579 13.1794H36.6101C36.6101 13.1794 36.5604 13.1794 36.5107 13.1794C36.461 13.1794 36.4113 13.1794 36.4113 13.1794C36.2126 13.1794 36.1132 13.1794 36.1132 13.1794C36.1132 13.1287 36.1629 13.1287 36.2126 13.1287C36.2622 13.1287 36.3119 13.1287 36.3616 13.078C36.461 13.0273 36.5107 12.9259 36.5604 12.8752C36.5604 12.8245 36.6101 12.7738 36.6101 12.7231C36.6101 12.6218 36.6101 12.5711 36.6101 12.5711C36.6101 12.5711 36.6101 12.5204 36.6598 12.4697V12.419C36.6598 12.3683 36.7095 12.3176 36.7095 12.2669C36.7095 12.2162 36.7095 12.1655 36.6598 12.1148C36.6598 12.1148 36.6598 12.0641 36.6598 12.0135C36.6598 11.9628 36.6598 11.8107 36.7095 11.6586C36.7095 11.6586 36.7095 11.6586 36.7095 11.6079V11.5572V11.5065V11.4558V11.4051C36.7095 11.2024 36.7095 11.1517 36.7095 11.1517C36.7095 11.101 36.7095 11.0503 36.7095 11.0503V10.9996C36.7095 10.9489 36.7095 10.8982 36.7095 10.8475C36.7095 10.7968 36.7095 10.7461 36.7095 10.6954C36.7095 10.6448 36.7095 10.6448 36.7592 10.6448H36.8089C36.8089 10.6448 36.8585 10.6448 36.9082 10.6448C36.9579 10.6448 36.9579 10.6448 37.0076 10.6448C37.0573 10.6448 37.0573 10.6448 37.107 10.5941C37.107 10.5941 37.0573 10.5434 37.0076 10.5434C36.9579 10.5434 36.9579 10.5434 36.9082 10.5434L36.8585 10.4927C36.8089 10.4927 36.8089 10.4927 36.7592 10.442C36.7592 10.442 36.7592 10.3406 36.7592 10.2392V10.1885C36.7592 10.1378 36.7592 10.1378 36.7592 10.1378C36.7592 10.1378 36.7592 10.0871 36.7592 10.0364C36.7592 9.98575 36.7592 9.98575 36.7592 9.93506H36.7095V9.88437V9.83367C36.7095 9.78298 36.7095 9.73229 36.7095 9.6309L36.6101 9.58021H36.5604H36.5107C36.461 9.58021 36.4113 9.58021 36.4113 9.52952C36.3616 9.52952 36.3119 9.58021 36.2622 9.6309H36.2126C36.1629 9.6309 36.1629 9.6309 36.1132 9.6309C36.0635 9.6309 36.0138 9.6309 36.0138 9.6309C35.9641 9.6309 35.9641 9.6309 35.9144 9.6309C35.9144 9.6309 35.8647 9.6309 35.7653 9.6816C35.7653 9.6816 35.7156 9.6816 35.7156 9.73229C35.6659 9.78298 35.5666 9.88437 35.4672 10.0364C35.4672 10.0364 35.4672 10.0871 35.4175 10.1378C35.5169 10.1378 35.4672 10.1378 35.4672 10.1378H35.4175V10.0871C35.4175 10.0364 35.4672 10.0364 35.4672 10.0364C35.4672 9.98575 35.5169 9.83367 35.5169 9.73229C35.5169 9.73229 35.5169 9.6816 35.5169 9.52952C35.5169 9.47883 35.5169 9.37744 35.5666 9.37744C35.6659 9.37744 35.7156 9.37744 35.7653 9.37744C35.7653 9.37744 35.815 9.37744 35.8647 9.42813H35.9144H35.9641C35.9641 9.42813 36.0138 9.42813 36.0635 9.42813C36.0635 9.42813 36.1132 9.42813 36.1629 9.42813C36.2126 9.42813 36.2126 9.42813 36.2622 9.42813C36.3119 9.42813 36.3616 9.42813 36.3616 9.42813H36.4113H36.461H36.7592H36.8089H36.8585C36.8585 9.42813 36.9082 9.42813 36.9579 9.42813C37.2064 9.42813 37.3555 9.42813 37.4052 9.42813C37.4052 9.42813 37.4052 9.42813 37.5045 9.42813C37.5045 9.42813 37.5542 9.42813 37.6536 9.42813H37.7033H37.753H37.8027C37.9021 9.42813 38.0015 9.42813 38.1505 9.42813C38.2002 9.42813 38.2499 9.42813 38.2996 9.42813H38.3493H38.399C38.399 9.42813 38.4984 9.42813 38.6475 9.37744C38.6971 9.37744 38.6971 9.42813 38.6971 9.47883C38.6971 9.52952 38.6971 9.52952 38.6971 9.58021C38.6971 9.58021 38.6971 9.6309 38.6971 9.6816C38.6971 9.73229 38.6971 9.73229 38.6971 9.73229V9.88437C38.6971 9.88437 38.6971 9.88437 38.6971 9.93506C38.5978 9.88437 38.5978 9.93506 38.5978 9.93506Z" fill="#EA901E"/>
<path fill-rule="evenodd" clip-rule="evenodd" d="M43.0205 9.2763C43.0205 9.32699 43.0205 9.37769 42.9708 9.37769C42.9708 9.37769 42.9211 9.37769 42.8714 9.37769C42.6727 9.47907 42.623 9.63115 42.623 9.83392C42.623 9.9353 42.623 10.0367 42.5733 10.2395V10.2902C42.5733 10.3408 42.5733 10.3915 42.623 10.4422C42.623 10.4929 42.6727 10.5436 42.6727 10.5943C42.6727 10.645 42.6727 10.7464 42.623 10.9492C42.623 11.0505 42.5733 11.1519 42.5733 11.304C42.5733 11.3547 42.5733 11.4054 42.5733 11.5068C42.5733 11.6082 42.5733 11.6588 42.5733 11.7095V12.3178C42.5733 12.4192 42.623 12.5206 42.623 12.622C42.623 12.7741 42.6727 12.8755 42.7223 12.9262C42.7223 12.9769 42.772 12.9769 42.8714 13.0275C42.9211 13.0275 42.9708 13.0782 42.9708 13.1289L42.9211 13.1796H41.6291C41.6291 13.1796 41.6291 13.1289 41.6291 13.0782C41.6291 13.0275 41.6291 13.0275 41.6788 12.9769C41.7285 12.9769 41.7782 12.9262 41.8279 12.9262C41.8776 12.8755 41.9273 12.8248 41.9273 12.7741C41.977 12.5206 41.977 12.3179 42.0267 12.1658C42.0267 12.1151 42.0267 12.0644 42.0267 12.0137C42.0267 11.9123 42.0267 11.8616 42.0267 11.8616C42.0267 11.8616 42.0267 11.7602 42.0267 11.6588C42.0267 11.5575 42.0267 11.5068 42.0267 11.4054C42.0267 11.3547 42.0267 11.304 41.977 11.2026C41.8279 11.304 41.6788 11.3547 41.5297 11.3547C41.3807 11.3547 41.2813 11.3547 41.2316 11.3547C41.2316 11.3547 41.1819 11.3547 41.1322 11.3547C41.0825 11.3547 41.0825 11.3547 41.0825 11.3547H40.4365C40.3868 11.3547 40.3371 11.4054 40.2874 11.4561C40.188 11.5575 40.188 11.6082 40.2377 11.7095C40.2377 11.7095 40.2874 11.7602 40.2874 11.8109C40.2874 11.8109 40.2874 11.8616 40.2874 11.9123C40.2874 11.963 40.2874 12.0137 40.2874 12.0137C40.2874 12.0644 40.2874 12.1151 40.2874 12.1658C40.2874 12.2165 40.2874 12.2672 40.2874 12.2672V12.5713C40.2874 12.6727 40.2874 12.7234 40.3371 12.8248C40.3868 12.9262 40.4365 13.0275 40.5359 13.0275C40.5856 13.0275 40.6353 13.0782 40.7347 13.0782C40.7347 13.1289 40.685 13.1796 40.5856 13.1796C40.5359 13.1796 40.4862 13.1796 40.4365 13.1796H39.8899H39.8402C39.8402 13.1796 39.7408 13.1796 39.6911 13.1796C39.6414 13.1796 39.5917 13.1796 39.542 13.1796C39.542 13.1796 39.4924 13.1796 39.4427 13.1796C39.393 13.1796 39.3433 13.1796 39.3433 13.1796C39.3433 13.1289 39.393 13.0782 39.4427 13.0275C39.5917 12.9769 39.6911 12.9262 39.6911 12.7741C39.6911 12.6727 39.6911 12.622 39.7408 12.5206C39.7905 12.3179 39.7905 12.2165 39.7905 12.1151C39.7905 12.1151 39.7905 12.0644 39.7408 12.0137C39.7408 11.963 39.6911 11.9123 39.6911 11.9123C39.6911 11.8616 39.6911 11.8616 39.6911 11.8109C39.6911 11.7602 39.6911 11.7095 39.6911 11.7095V11.2026V11.1519V11.1012C39.6911 11.1012 39.6911 10.9998 39.6414 10.8478C39.6414 10.8478 39.6414 10.7971 39.6414 10.645C39.6414 10.5436 39.6414 10.4929 39.6414 10.4422V10.3915V10.3408V9.88461C39.6414 9.83392 39.5917 9.78323 39.542 9.68184C39.4924 9.58046 39.4427 9.52976 39.393 9.52976C39.2936 9.52976 39.2439 9.47907 39.2439 9.47907V9.42838C39.2439 9.37769 39.2936 9.37769 39.2936 9.37769C39.3433 9.37769 39.4427 9.37769 39.5917 9.32699C39.7408 9.32699 39.8402 9.32699 39.9396 9.32699H40.5359C40.6353 9.37769 40.685 9.37769 40.685 9.42838L40.6353 9.47907C40.6353 9.47907 40.5856 9.47907 40.5359 9.47907C40.3868 9.58046 40.2874 9.63115 40.2874 9.68184C40.2874 9.78323 40.2377 9.88461 40.2377 10.0874C40.2377 10.2395 40.188 10.3408 40.188 10.3408V10.5943C40.188 10.7464 40.188 10.8478 40.2377 10.8985C40.2377 10.8985 40.2874 10.9492 40.3371 10.9492C40.3371 10.9492 40.4365 10.9492 40.5359 10.9492C40.5856 10.9492 40.685 10.9492 40.834 10.9492C40.9831 10.9492 41.0328 10.9492 41.0328 10.9492H41.48C41.5794 10.9492 41.6291 10.9492 41.6291 10.9492C41.6291 10.9492 41.6788 10.9492 41.7782 10.9998C41.8279 11.0505 41.8776 11.0505 41.9273 11.0505C41.977 10.9998 42.0267 10.8985 42.0267 10.7971C42.0267 10.7971 42.0267 10.645 41.977 10.4929C41.977 10.4422 41.977 10.3408 41.977 10.1888C41.977 10.1888 41.977 10.1381 41.977 10.0874C41.977 10.0367 41.977 9.986 41.977 9.986C41.977 9.83392 41.9273 9.68184 41.8776 9.58046C41.8279 9.52976 41.7782 9.47907 41.6788 9.47907C41.5794 9.42838 41.5794 9.42838 41.5794 9.37769C41.6291 9.32699 41.6291 9.32699 41.6788 9.32699C41.7782 9.32699 41.8776 9.32699 41.977 9.32699C41.977 9.32699 42.0267 9.32699 42.0763 9.37769C42.126 9.37769 42.1757 9.37769 42.2751 9.32699C42.3745 9.2763 42.4242 9.2763 42.4739 9.2763C42.5236 9.2763 42.5733 9.2763 42.6727 9.2763C42.7223 9.2763 42.772 9.2763 42.8217 9.2763C42.8714 9.22561 42.9708 9.22561 43.0205 9.2763ZM39.8402 10.2902C39.8402 10.2395 39.8402 10.1888 39.8402 10.1381C39.8899 9.986 39.8402 9.78323 39.7905 9.63115C39.7905 9.63115 39.7408 9.58046 39.6911 9.52976C39.7408 9.68184 39.7408 9.78323 39.7408 9.88461V10.3408C39.7408 10.4929 39.7408 10.5943 39.7408 10.7464C39.7905 10.5436 39.7905 10.3915 39.8402 10.2902Z" fill="#EA901E"/>
<path fill-rule="evenodd" clip-rule="evenodd" d="M46.6975 12.1657C46.6975 12.267 46.6975 12.4191 46.6478 12.6219C46.6478 12.6726 46.5981 12.774 46.5484 12.8247C46.5484 12.8754 46.5484 12.926 46.4987 12.9767C46.4987 12.9767 46.449 13.0274 46.3993 13.0781C46.3496 13.1288 46.2999 13.1795 46.2999 13.1795H45.5546C45.5546 13.1795 45.4552 13.1795 45.3061 13.1795C45.157 13.1795 45.0576 13.1795 45.0576 13.1795H44.6104C44.6104 13.1795 44.5607 13.1795 44.4116 13.1795C44.3123 13.1795 44.2626 13.1795 44.2129 13.1795H43.7656L43.716 13.1288C43.716 13.0781 43.8153 13.0274 43.9644 12.926C44.0638 12.8754 44.1135 12.774 44.1135 12.6726V11.7094C44.1135 11.5574 44.1135 11.3546 44.1632 11.1011C44.1632 10.9997 44.1135 10.8983 44.1632 10.797C44.1135 10.7463 44.1135 10.7463 44.1135 10.6449C44.1135 10.6449 44.1135 10.5435 44.1632 10.3914C44.1632 10.3914 44.1632 10.3407 44.1135 10.29C44.0638 10.2393 44.0638 10.1887 44.0638 10.1887C44.0638 10.138 44.0638 10.0873 44.0638 9.98588C44.0638 9.8845 44.0638 9.78311 44.0638 9.78311C44.0638 9.73242 44.0638 9.68173 44.0141 9.63104C43.9644 9.58034 43.9147 9.52965 43.865 9.47896C43.8153 9.42827 43.7656 9.42827 43.6663 9.37757C43.716 9.32688 43.716 9.27619 43.7656 9.27619C43.8153 9.27619 43.9147 9.27619 44.0141 9.27619C44.1135 9.2255 44.2129 9.2255 44.2129 9.2255H44.7098C44.7098 9.2255 44.7595 9.2255 44.9086 9.2255C45.0079 9.2255 45.1073 9.2255 45.157 9.2255C45.157 9.2255 45.3558 9.2255 45.7533 9.1748C45.8527 9.1748 46.0515 9.1748 46.3993 9.1748C46.449 9.1748 46.449 9.2255 46.449 9.27619C46.449 9.27619 46.449 9.32688 46.449 9.37757C46.449 9.42827 46.449 9.42827 46.449 9.47896C46.449 9.52965 46.449 9.78311 46.3993 10.138C46.3993 10.138 46.3496 10.1887 46.2999 10.1887C46.2999 10.1887 46.2502 10.0366 46.2006 9.8845C46.1509 9.78311 46.1012 9.68173 46.0018 9.68173C46.0018 9.68173 45.9521 9.68173 45.9024 9.68173C45.8527 9.68173 45.803 9.68173 45.803 9.68173H45.7533C45.6539 9.73242 45.5049 9.73242 45.2067 9.68173C45.0576 9.68173 44.9086 9.68173 44.8589 9.68173L44.8092 9.73242C44.8589 9.98588 44.8589 10.1887 44.8092 10.3407C44.8092 10.3407 44.8092 10.3914 44.8092 10.4928C44.8092 10.5435 44.8092 10.5942 44.8092 10.6449C44.8092 10.6956 44.8092 10.797 44.8092 10.797C44.8092 10.797 44.8092 10.8477 44.8589 10.8983H45.9521C46.0018 10.8983 46.0018 10.8983 46.0515 10.8477C46.1012 10.8477 46.1509 10.797 46.1509 10.7463C46.1509 10.6956 46.2006 10.6449 46.2502 10.5435C46.2999 10.5435 46.2999 10.5435 46.2999 10.5435C46.3496 10.5435 46.3496 10.5942 46.3496 10.5942C46.3496 10.6956 46.3496 10.8477 46.3496 11.0504C46.3496 11.1518 46.3496 11.3546 46.2999 11.5574C46.2999 11.608 46.2502 11.608 46.2006 11.608C46.1509 11.5574 46.1509 11.5067 46.0515 11.4053C46.0018 11.3546 45.9521 11.3546 45.8527 11.3039C45.803 11.2532 45.7533 11.2532 45.7036 11.2532H45.3061C45.2564 11.2532 45.2564 11.2532 45.157 11.2532C45.1073 11.2532 45.0079 11.2532 45.0079 11.2532C44.9086 11.2532 44.8589 11.3039 44.8092 11.3546C44.7595 11.4053 44.7595 11.5067 44.7595 11.5067C44.7595 11.5574 44.7595 11.608 44.7595 11.7094C44.7595 11.8108 44.7595 11.8615 44.7595 11.9629C44.7595 12.0136 44.7595 12.0643 44.7098 12.115C44.7098 12.1657 44.7098 12.267 44.7098 12.3177C44.7098 12.3684 44.7098 12.3684 44.7098 12.4191C44.7098 12.4698 44.7595 12.5205 44.8589 12.5712C44.9583 12.6219 45.0079 12.6726 45.1073 12.6726H45.157H45.2067H45.7036C45.803 12.6726 45.9024 12.6726 45.9521 12.6219C46.0515 12.5712 46.1509 12.4698 46.2502 12.3684C46.3496 12.2164 46.3993 12.115 46.3993 12.0136C46.5484 12.1657 46.5981 12.1657 46.6975 12.1657Z" fill="#EA901E"/>
<path fill-rule="evenodd" clip-rule="evenodd" d="M9.32912 0.506303C9.32912 0.506303 9.27943 0.506303 9.22974 0.506303V0.455611C9.22974 0.404918 9.18004 0.354226 9.13035 0.303533C9.08066 0.252841 9.03097 0.202148 8.93158 0.202148H8.88189C8.88189 0.202148 8.8322 0.202148 8.78251 0.202148C8.73281 0.202148 8.73282 0.202148 8.68312 0.202148H8.63343H8.58374C8.53405 0.202148 8.53405 0.202148 8.48436 0.202148C8.43466 0.202148 8.43466 0.202148 8.33528 0.202148H8.28559L8.2359 0.252841C8.2359 0.252841 8.2359 0.303533 8.2359 0.354226C8.2359 0.404918 8.2359 0.404918 8.1862 0.455611C8.1862 0.506303 8.1862 0.556996 8.1862 0.607688C8.1862 0.658381 8.1862 0.709073 8.1862 0.759766V1.01323V1.06392V1.11461V1.16531H8.2359V1.216L8.1862 1.26669L8.2359 1.31738C8.2359 1.36808 8.2359 1.36808 8.2359 1.41877V1.52015V1.57085C8.2359 1.62154 8.2359 1.62154 8.2359 1.62154V1.67223H8.28559V1.72292C8.28559 1.77362 8.28559 1.82431 8.2359 1.875C8.2359 1.875 8.2359 1.97639 8.2359 2.12846C8.2359 2.17916 8.2359 2.17916 8.2359 2.22985C8.2359 2.28054 8.2359 2.33123 8.28559 2.38193H8.33528C8.33528 2.38193 8.38497 2.43262 8.38497 2.48331L8.43466 2.534C8.48436 2.534 8.53405 2.534 8.58374 2.534V2.5847H8.1862H8.13651C8.08682 2.5847 8.08682 2.5847 8.08682 2.5847H7.83836C7.83836 2.5847 7.83836 2.5847 7.78867 2.5847C7.73898 2.5847 7.73898 2.5847 7.68928 2.5847C7.54021 2.5847 7.49052 2.5847 7.44082 2.5847C7.44082 2.5847 7.49052 2.534 7.54021 2.534C7.5899 2.534 7.5899 2.534 7.63959 2.48331C7.68928 2.43262 7.73898 2.38193 7.78867 2.33123C7.78867 2.28054 7.78867 2.28054 7.78867 2.22985C7.78867 2.17916 7.78867 2.12846 7.78867 2.12846V2.07777V2.02708C7.78867 1.97639 7.78867 1.97639 7.78867 1.92569C7.78867 1.875 7.78867 1.875 7.78867 1.82431V1.77362C7.78867 1.72292 7.78867 1.62154 7.78867 1.52015V1.46946V1.41877C7.78867 1.31738 7.78867 1.216 7.78867 1.26669C7.78867 1.216 7.78867 1.216 7.78867 1.216V1.16531C7.78867 1.16531 7.78867 1.11461 7.78867 1.06392C7.78867 1.01323 7.78867 0.962536 7.78867 0.962536V0.911843H7.83836H7.88805H7.93774H7.98744C7.98744 0.911843 7.98744 0.911843 7.93774 0.861151H7.83836H7.78867C7.78867 0.861151 7.73898 0.861151 7.68928 0.810458C7.68928 0.810458 7.68928 0.759766 7.68928 0.658381V0.607688V0.556996V0.506303V0.455611H7.63959C7.63959 0.455611 7.63959 0.404918 7.63959 0.354226H7.5899C7.54021 0.354226 7.54021 0.354226 7.54021 0.303533C7.54021 0.303533 7.49052 0.354226 7.44082 0.354226H7.39113C7.39113 0.354226 7.34144 0.354226 7.29175 0.354226C7.24206 0.354226 7.24206 0.354226 7.19236 0.354226H7.14267C7.14267 0.354226 7.09298 0.354226 7.04329 0.354226L6.9936 0.404918C6.9439 0.455611 6.89421 0.506303 6.79483 0.607688C6.79483 0.607688 6.79483 0.658381 6.74514 0.658381C6.74514 0.709073 6.69544 0.709073 6.69544 0.709073H6.64575V0.658381V0.607688C6.64575 0.556996 6.64575 0.506303 6.69544 0.404918C6.69544 0.404918 6.69544 0.354226 6.69544 0.303533C6.69544 0.252841 6.69544 0.202148 6.74514 0.202148C6.79483 0.202148 6.84452 0.202148 6.89421 0.202148H6.9439H6.9936H7.04329H7.09298H7.14267C7.14267 0.202148 7.19236 0.202148 7.24206 0.202148C7.29175 0.202148 7.29175 0.202148 7.34144 0.202148H7.39113H7.44082H7.63959H7.68928H7.73898H7.78867C7.93774 0.202148 8.08682 0.202148 8.13651 0.202148C8.13651 0.202148 8.13651 0.202148 8.1862 0.202148C8.1862 0.202148 8.2359 0.202148 8.28559 0.202148H8.63343C8.73282 0.202148 8.78251 0.202148 8.88189 0.202148C8.88189 0.202148 8.93158 0.202148 8.98128 0.202148H9.03097H9.08066C9.08066 0.202148 9.13035 0.202148 9.22974 0.202148L9.27943 0.252841V0.303533V0.354226C9.27943 0.404918 9.27943 0.404918 9.27943 0.404918V0.506303V0.556996L9.32912 0.506303Z" fill="#EA901E"/>
<path fill-rule="evenodd" clip-rule="evenodd" d="M12.4595 0.0506925C12.4595 0.101385 12.4595 0.101385 12.4098 0.101385H12.3601C12.211 0.152077 12.1613 0.304155 12.211 0.40554C12.211 0.456232 12.211 0.557617 12.1613 0.659002V0.709695C12.1613 0.709695 12.1613 0.760387 12.1613 0.81108C12.1613 0.861772 12.1613 0.912465 12.1613 0.912465C12.1613 0.963157 12.1613 1.01385 12.1613 1.16593C12.1613 1.21662 12.1613 1.318 12.1116 1.41939C12.1116 1.47008 12.1116 1.47008 12.1116 1.57147C12.1116 1.62216 12.1116 1.67285 12.1116 1.72354V2.12908C12.1116 2.17978 12.1116 2.28116 12.1613 2.33185C12.1613 2.43324 12.211 2.48393 12.2607 2.53462C12.2607 2.53462 12.3104 2.58532 12.3601 2.58532C12.4098 2.58532 12.4098 2.63601 12.4098 2.63601L12.3601 2.6867H11.416V2.63601C11.416 2.63601 11.416 2.58532 11.4657 2.58532C11.5153 2.58532 11.5153 2.53462 11.565 2.53462C11.6147 2.48393 11.6644 2.48393 11.6644 2.43324C11.7141 2.28116 11.7141 2.12908 11.7141 2.0277C11.7141 2.0277 11.7141 1.97701 11.7141 1.92631C11.7141 1.87562 11.7141 1.82493 11.7141 1.82493C11.7141 1.82493 11.7141 1.77424 11.7141 1.67285C11.7141 1.62216 11.7141 1.57147 11.7141 1.52077C11.7141 1.47008 11.7141 1.41939 11.6644 1.3687C11.565 1.41939 11.4657 1.47008 11.3663 1.47008C11.2669 1.47008 11.2172 1.47008 11.1675 1.47008H11.1178H11.0681H10.6209C10.5712 1.47008 10.5712 1.47008 10.5215 1.52077C10.4718 1.57147 10.4221 1.62216 10.4718 1.72354L10.5215 1.77424V1.82493C10.5215 1.87562 10.5215 1.87562 10.5215 1.87562C10.5215 1.87562 10.5215 1.92631 10.5215 1.97701C10.5215 2.0277 10.5215 2.0277 10.5215 2.0277V2.23047C10.5215 2.28116 10.5215 2.33185 10.5712 2.38255C10.6209 2.43324 10.6209 2.48393 10.7203 2.53462C10.77 2.53462 10.8197 2.53462 10.8693 2.58532C10.8693 2.63601 10.8197 2.63601 10.77 2.63601C10.7203 2.63601 10.7203 2.63601 10.6706 2.63601H10.273C10.273 2.63601 10.2234 2.63601 10.1737 2.63601C10.124 2.63601 10.0743 2.63601 10.0743 2.63601H10.0246C9.97489 2.63601 9.97489 2.63601 9.9252 2.63601C9.9252 2.58532 9.9252 2.53462 10.0246 2.53462C10.124 2.48393 10.1737 2.43324 10.2234 2.38255C10.2234 2.33185 10.2234 2.28116 10.273 2.17978C10.124 2.07839 10.124 1.97701 10.124 1.92631V1.87562C10.124 1.82493 10.0743 1.82493 10.0743 1.77424C10.0743 1.77424 10.0743 1.72354 10.0743 1.67285C10.0743 1.62216 10.0743 1.62216 10.0743 1.62216V1.26731V1.21662V1.16593C10.0743 1.16593 10.0743 1.11523 10.0246 1.01385C10.0246 1.01385 10.0246 0.963157 10.0246 0.861772C10.0246 0.81108 10.0246 0.760387 10.0246 0.709695V0.40554C10.0246 0.40554 10.0246 0.354847 9.97489 0.304155C9.9252 0.253462 9.9252 0.20277 9.87551 0.20277C9.82582 0.20277 9.77612 0.152077 9.77612 0.152077V0.101385L9.82582 0.0506925C9.82582 0.0506925 9.9252 0.0506925 10.0246 0.0506925C10.124 0.0506925 10.2234 0.0506925 10.273 0.0506925H10.7203C10.8197 0.0506925 10.8197 0.101385 10.8197 0.152077V0.20277H10.77C10.6706 0.253462 10.5712 0.304155 10.5712 0.354847C10.5712 0.40554 10.5712 0.506925 10.5215 0.60831C10.5215 0.709695 10.5215 0.760387 10.5215 0.760387V0.963157C10.5215 1.06454 10.5215 1.11523 10.5215 1.16593L10.5712 1.21662C10.5712 1.21662 10.6209 1.21662 10.7203 1.21662C10.77 1.21662 10.8197 1.21662 10.919 1.21662C11.0184 1.21662 11.0681 1.21662 11.0681 1.21662H11.3663C11.416 1.21662 11.4657 1.21662 11.4657 1.21662C11.4657 1.21662 11.5153 1.21662 11.565 1.26731C11.6147 1.26731 11.6644 1.318 11.6644 1.318C11.7141 1.26731 11.7141 1.21662 11.7141 1.16593C11.7141 1.16593 11.7141 1.06454 11.6644 0.963157C11.6644 0.963157 11.6644 0.861772 11.6644 0.760387V0.709695C11.6644 0.659002 11.6644 0.659002 11.6644 0.60831C11.6644 0.506925 11.6147 0.40554 11.565 0.354847C11.565 0.304155 11.5153 0.304155 11.416 0.253462C11.3663 0.253462 11.3166 0.20277 11.3166 0.20277L11.3663 0.152077C11.416 0.152077 11.5153 0.152077 11.6147 0.152077C11.6147 0.152077 11.6644 0.152077 11.7141 0.20277C11.7638 0.20277 11.8135 0.20277 11.8632 0.20277C12.0123 0 12.062 0 12.062 0C12.1116 0 12.1116 0 12.211 0C12.2607 0 12.3104 0 12.3104 0C12.3601 0 12.4098 0 12.4595 0.0506925ZM10.1737 0.760387C10.1737 0.709695 10.1737 0.709695 10.1737 0.659002C10.1737 0.557617 10.1737 0.40554 10.1737 0.304155C10.1737 0.304155 10.1737 0.253462 10.124 0.253462C10.124 0.304155 10.124 0.40554 10.124 0.456232V0.760387C10.124 0.861772 10.124 0.963157 10.124 1.01385C10.1737 0.912465 10.1737 0.81108 10.1737 0.760387Z" fill="#EA901E"/>
<path fill-rule="evenodd" clip-rule="evenodd" d="M15.0933 1.97661C15.0933 2.0273 15.0933 2.12869 15.0436 2.28076C15.0436 2.33146 14.9939 2.38215 14.9939 2.43284C14.9939 2.48353 14.9939 2.48353 14.9442 2.53423C14.9442 2.53423 14.9442 2.58492 14.8945 2.58492C14.8448 2.63561 14.8448 2.63561 14.7951 2.63561H14.2485C14.2485 2.63561 14.1988 2.63561 14.0498 2.63561C13.9504 2.63561 13.851 2.63561 13.851 2.63561H13.6025C13.6025 2.63561 13.5528 2.63561 13.4535 2.63561C13.3541 2.63561 13.3541 2.63561 13.3044 2.63561H13.0062L12.9565 2.58492C12.9565 2.58492 13.0559 2.53423 13.1553 2.48353C13.205 2.43284 13.2547 2.38215 13.2547 2.33146V1.72315C13.2547 1.62176 13.2547 1.46968 13.3044 1.31761C13.3044 1.26691 13.3044 1.21622 13.3044 1.11484C13.3044 1.11484 13.2547 1.06414 13.2547 1.01345C13.2547 1.01345 13.2547 0.962758 13.3044 0.861373V0.81068C13.3044 0.759988 13.2547 0.759988 13.2547 0.759988C13.2547 0.709295 13.2547 0.709295 13.2547 0.60791C13.2547 0.506525 13.2547 0.455833 13.2547 0.455833C13.2547 0.40514 13.2547 0.354448 13.205 0.354448C13.205 0.303755 13.1553 0.303755 13.1056 0.253063C13.0559 0.253063 13.0062 0.20237 12.9565 0.20237C12.9565 0.151678 13.0062 0.151678 13.0062 0.151678C13.0559 0.151678 13.1056 0.151678 13.205 0.151678C13.3044 0.151678 13.3541 0.100985 13.3541 0.100985H13.7019C13.7019 0.100985 13.7516 0.100985 13.851 0.100985C13.9504 0.100985 14.0001 0.100985 14.0498 0.100985C14.0498 0.100985 14.1988 0.100985 14.4473 0.050293C14.497 0.050293 14.6461 0.050293 14.8945 0.050293L14.9442 0.100985V0.151678V0.20237C14.9442 0.253063 14.9442 0.40514 14.8945 0.658603C14.8945 0.658603 14.8945 0.658603 14.8448 0.709295C14.8448 0.709295 14.7951 0.60791 14.7455 0.506525C14.6958 0.40514 14.6461 0.354448 14.5964 0.354448H14.5467C14.497 0.354448 14.497 0.354448 14.4473 0.354448H14.3976C14.3479 0.354448 14.1988 0.354448 14.0001 0.354448C13.9007 0.354448 13.8013 0.354448 13.7516 0.354448L13.7019 0.40514C13.7516 0.557218 13.7516 0.709295 13.7019 0.81068C13.7019 0.81068 13.7019 0.81068 13.7019 0.912065C13.7019 0.912065 13.7019 0.962758 13.7019 1.01345C13.7019 1.06414 13.7019 1.11484 13.7019 1.11484L13.7516 1.16553H14.5964H14.6461C14.6958 1.16553 14.6958 1.11484 14.7455 1.11484C14.7455 1.06414 14.7951 1.01345 14.8448 0.962758C14.8945 0.962758 14.8945 0.962758 14.8945 0.962758L14.9442 1.01345C14.9442 1.11484 14.9442 1.16553 14.9442 1.31761C14.9442 1.41899 14.9442 1.52038 14.8945 1.67245C14.8945 1.67245 14.8448 1.72315 14.7951 1.67245C14.7951 1.62176 14.7455 1.57107 14.6958 1.52038C14.6461 1.52038 14.6461 1.46968 14.5467 1.46968C14.497 1.46968 14.4473 1.41899 14.4473 1.41899H14.1492C14.1492 1.41899 14.0995 1.41899 14.0498 1.41899C14.0001 1.41899 13.9504 1.41899 13.9504 1.41899C13.9007 1.41899 13.851 1.41899 13.8013 1.46968C13.8013 1.52038 13.7516 1.57107 13.7516 1.57107C13.7516 1.57107 13.7516 1.62176 13.7516 1.72315C13.7516 1.77384 13.7516 1.82453 13.7516 1.87522C13.7516 1.87522 13.7516 1.92592 13.7516 1.97661C13.7516 2.0273 13.7516 2.07799 13.7516 2.07799V2.12869C13.7516 2.17938 13.8013 2.17938 13.851 2.23007C13.9007 2.28076 13.9504 2.28076 14.0001 2.33146H14.0498H14.3976C14.497 2.33146 14.5467 2.33146 14.5964 2.28076C14.6461 2.23007 14.7455 2.17938 14.7951 2.12869C14.8945 2.0273 14.8945 1.97661 14.8945 1.87522C14.9939 1.97661 15.0436 1.97661 15.0933 1.97661Z" fill="#EA901E"/>
</g>
<defs>
<clipPath id="clip0">
<rect width="87.3088" height="19.0604" fill="white" transform="translate(0.682617)"/>
</clipPath>
</defs>
</svg>
