<svg width="60" height="33" viewBox="0 0 60 33" fill="none" xmlns="http://www.w3.org/2000/svg">
<g clip-path="url(#clip0)">
<path d="M30.1866 0C13.8597 0 0.656982 7.2966 0.656982 16.3101C0.656982 25.3235 13.8597 32.6201 30.1866 32.6201C46.48 32.6201 59.7163 25.3235 59.7163 16.3101C59.6827 7.2966 46.48 0 30.1866 0Z" fill="#FFD32C"/>
<path d="M30.1866 0C13.8597 0 0.656982 7.2966 0.656982 16.3101C0.656982 25.3235 13.8597 32.6201 30.1866 32.6201C46.48 32.6201 59.7163 25.3235 59.7163 16.3101C59.6827 7.2966 46.48 0 30.1866 0ZM30.1866 30.9693C15.5058 30.9693 3.61331 24.399 3.61331 16.3101C3.61331 8.22106 15.5058 1.65082 30.1866 1.65082C44.8675 1.65082 56.7599 8.22106 56.7599 16.3101C56.7599 24.399 44.8675 30.9693 30.1866 30.9693Z" fill="#060807"/>
<path d="M40.265 4.98528C40.265 4.98528 43.0198 8.71612 41.7432 10.6641C40.8025 12.0838 39.2572 12.447 37.947 12.447C34.1172 12.447 33.9492 10.3009 33.9492 10.3009L33.4117 3.76367L31.6312 6.57006H28.6749L26.8944 3.76367L26.3569 10.3009C26.3569 10.3009 26.2225 12.447 22.3591 12.447C21.0489 12.447 19.5036 12.0838 18.5629 10.6641C17.2863 8.71612 20.0411 4.98528 20.0411 4.98528C12.4823 7.03229 7.27515 11.3574 7.27515 16.3099C7.27515 20.2058 10.4666 23.6725 15.4386 25.9836C14.8339 25.1582 13.3894 22.7811 15.0355 21.0972C17.0512 19.0172 20.2091 20.2718 21.5864 22.3519C21.5864 22.3519 21.6872 19.9747 24.106 20.2718C26.5248 20.569 29.7163 23.3754 30.1195 26.71C30.5562 23.3754 33.7141 20.602 36.1329 20.2718C38.5517 19.9747 38.6525 22.3519 38.6525 22.3519C40.0299 20.2718 43.1878 19.0172 45.2034 21.0972C46.8496 22.7811 45.3714 25.1582 44.8003 25.9836C49.8059 23.6725 52.9638 20.2058 52.9638 16.3099C53.031 11.3244 47.8238 7.03229 40.265 4.98528Z" fill="#060807"/>
</g>
<defs>
<clipPath id="clip0">
<rect width="59.0257" height="32.5871" fill="white" transform="translate(0.656982)"/>
</clipPath>
</defs>
</svg>
