<svg width="93" height="16" viewBox="0 0 93 16" fill="none" xmlns="http://www.w3.org/2000/svg">
<g clip-path="url(#clip0)">
<path fill-rule="evenodd" clip-rule="evenodd" d="M10.4802 7.42365C10.4802 7.13812 10.3348 6.85258 10.141 6.66222C9.89879 6.42428 9.65656 6.3291 9.36588 6.3291C9.0752 6.3291 8.83296 6.42428 8.59073 6.66222C8.39694 6.85258 8.30005 7.13812 8.30005 7.42365C8.30005 7.70918 8.39694 7.99472 8.59073 8.18508C8.83296 8.42302 9.0752 8.5182 9.36588 8.5182C9.65656 8.5182 9.89879 8.42302 10.141 8.18508C10.3833 7.99472 10.4802 7.70918 10.4802 7.42365Z" fill="#060807"/>
<path fill-rule="evenodd" clip-rule="evenodd" d="M26.3222 6.80507C26.0799 6.61471 25.8377 6.51953 25.547 6.51953C25.2563 6.51953 25.0141 6.61471 24.7719 6.80507C24.5781 7.04301 24.4812 7.28096 24.4812 7.56649C24.4812 7.85203 24.5781 8.13756 24.7719 8.32792C25.0141 8.51827 25.2563 8.61345 25.547 8.61345C25.8377 8.61345 26.0799 8.51827 26.3222 8.32792C26.516 8.08997 26.6613 7.85203 26.6613 7.56649C26.6613 7.28096 26.5644 6.99542 26.3222 6.80507Z" fill="#FBE700"/>
<path fill-rule="evenodd" clip-rule="evenodd" d="M35.7694 6.85265C35.5272 6.61471 35.285 6.51953 34.9943 6.51953C34.7036 6.51953 34.4614 6.61471 34.2191 6.85265C34.0254 7.04301 33.9285 7.32855 33.9285 7.61408C33.9285 7.89961 34.0254 8.18515 34.2191 8.37551C34.4614 8.61345 34.7036 8.70863 34.9943 8.70863C35.285 8.70863 35.5272 8.61345 35.7694 8.37551C35.9632 8.18515 36.1086 7.89961 36.1086 7.61408C36.1086 7.32855 35.9632 7.0906 35.7694 6.85265Z" fill="#E42F27"/>
<path fill-rule="evenodd" clip-rule="evenodd" d="M50.5457 7.51886C50.5457 7.23333 50.4488 6.9478 50.255 6.75744C50.0128 6.56708 49.7706 6.42432 49.4799 6.42432C49.1892 6.42432 48.947 6.56708 48.7047 6.75744C48.511 6.99538 48.4141 7.23333 48.4141 7.51886C48.4141 7.8044 48.511 8.08993 48.7047 8.28029C48.947 8.47065 49.1892 8.56582 49.4799 8.56582C49.7706 8.56582 50.0128 8.47065 50.255 8.28029C50.4488 8.04234 50.5457 7.8044 50.5457 7.51886Z" fill="#FBE700"/>
<path fill-rule="evenodd" clip-rule="evenodd" d="M65.2248 6.94787C64.9825 6.75751 64.7403 6.61475 64.4496 6.61475C64.1589 6.61475 63.9167 6.75751 63.6745 6.94787C63.4807 7.18582 63.3838 7.42376 63.3838 7.70929C63.3838 7.99483 63.4807 8.28036 63.6745 8.47072C63.9167 8.66108 64.1589 8.75625 64.4496 8.75625C64.7403 8.75625 64.9825 8.66108 65.2248 8.47072C65.4186 8.23277 65.5155 7.99483 65.5155 7.70929C65.5155 7.42376 65.4186 7.13823 65.2248 6.94787Z" fill="#323391"/>
<path fill-rule="evenodd" clip-rule="evenodd" d="M82.3267 6.85265C82.1329 6.61471 81.8422 6.51953 81.5515 6.51953C81.2608 6.51953 80.9702 6.61471 80.7764 6.85265C80.5341 7.04301 80.4373 7.32855 80.4373 7.61408C80.4373 7.89961 80.5341 8.18515 80.7764 8.37551C80.9702 8.61345 81.2608 8.70863 81.5515 8.70863C81.8422 8.70863 82.0844 8.61345 82.3267 8.37551C82.5689 8.18515 82.6658 7.89961 82.6658 7.61408C82.6658 7.32855 82.5689 7.0906 82.3267 6.85265Z" fill="#E42F27"/>
<path d="M45.9914 5.4728H45.2647C45.1678 5.42521 45.0709 5.42521 45.0224 5.42521L44.7318 5.4728H40.7591C40.8076 5.28245 40.856 5.18727 41.0498 5.13968C41.7765 4.85414 42.7939 4.56861 44.1988 4.33066C44.2473 4.33066 44.2957 4.33066 44.3442 4.28308C44.3926 4.28308 44.4895 4.23549 44.538 4.1879C44.5864 4.14031 44.6349 4.09272 44.6349 3.99754C44.6349 3.94995 44.6349 3.90236 44.6349 3.85477V3.2837C44.6349 3.23612 44.6349 3.23612 44.6349 3.18853C44.6349 3.14094 44.5864 3.04576 44.538 2.99817C44.4895 2.95058 44.4411 2.90299 44.3926 2.8554C44.3442 2.8554 44.3442 2.80781 44.2957 2.80781C42.9392 2.37951 41.6796 2.52228 40.42 3.23612C39.984 3.42647 39.6449 3.85477 39.3057 4.52102L38.6275 6.09146C38.4337 6.42458 38.3852 6.85289 38.3852 7.42395C38.3852 7.80467 38.3368 8.0902 38.1915 8.42333C38.0461 8.89922 37.9492 9.66064 37.9492 10.8504C37.9492 10.9931 37.9977 11.1359 38.0946 11.1835C38.1915 11.2787 38.2883 11.3263 38.4337 11.3263H38.4821C39.8871 11.1835 41.0014 10.9931 41.8734 10.7552C43.1815 10.3745 44.1988 9.851 44.9256 9.13716C45.0709 8.99439 45.1193 8.80404 45.0224 8.61368C44.9255 8.42333 44.7802 8.32815 44.5864 8.32815C43.9566 8.32815 43.2299 8.47091 42.4063 8.70886L40.42 9.37511C40.2747 9.37511 40.1778 9.27993 40.1293 9.13716C40.0324 8.99439 40.0324 8.80404 40.1293 8.61368C40.5169 7.99502 40.6622 7.85226 40.7107 7.80467C40.9045 7.61431 41.1467 7.56672 41.4374 7.61431C41.4858 7.61431 41.4858 7.61431 41.5343 7.61431C41.825 7.61431 42.0187 7.37637 42.1156 7.2336L42.4548 7.28119C42.6001 7.32878 42.9877 7.37637 43.2784 7.13842C43.4237 7.04324 43.8597 6.90047 44.0051 6.90047C44.3926 6.8053 44.7318 6.66253 45.0224 6.42458H45.1678L45.3131 6.47217C45.846 6.71012 46.2336 6.47217 46.4274 6.32941C46.4758 6.28182 46.5243 6.23423 46.5243 6.18664C46.5727 6.13905 46.5727 6.04387 46.5727 5.99628C46.4758 5.66316 46.2821 5.4728 45.9914 5.4728Z" fill="#060807"/>
<path d="M61.7369 0C61.5431 0 61.3493 0.142767 61.3009 0.333124C61.1555 0.809014 60.8164 1.61803 60.1866 3.0457C59.6537 4.18784 59.2661 5.18721 59.0239 5.85346L58.6363 6.90042C58.5394 7.09077 58.4425 7.09077 58.2487 6.99559C57.1829 6.56729 56.3593 5.94863 55.8264 5.13962L55.245 3.94989C55.0513 3.61677 54.809 3.28365 54.4215 3.23606C54.2277 3.18847 54.0339 3.28365 53.8401 3.42641C53.1618 4.14025 52.7258 5.13962 52.532 6.42452L52.2898 9.61299C52.2898 9.61299 52.2898 9.61299 52.2898 9.66058C52.2898 9.70817 52.2898 9.75576 52.2898 9.80335C52.2898 9.85094 52.3382 9.94612 52.3867 9.9937C52.4351 10.0413 52.4836 10.0889 52.532 10.0889L52.5805 10.1841V10.2317C52.6289 10.3268 52.6774 10.3744 52.7258 10.422C52.8227 10.4696 52.9196 10.5648 53.0165 10.5648C53.0165 10.5648 53.0165 10.5648 53.0649 10.5648C53.2587 10.5648 53.4041 10.4696 53.5494 10.2792C53.7432 9.94612 53.937 9.47023 53.9854 8.99433L54.1792 7.75702C54.2277 7.23354 54.3246 6.99559 54.373 6.948C54.4215 6.85283 54.4214 6.85283 54.5183 6.85283H54.5668C54.8575 6.85283 55.1482 6.948 55.4388 7.13836C55.6811 7.28113 55.9717 7.51907 56.3593 7.8522L57.3767 8.85157C57.8612 9.32746 58.2487 9.61299 58.5879 9.80335C58.6848 9.85094 58.7332 9.85094 58.8301 9.85094C59.5568 9.85094 59.9444 9.61299 59.9444 9.18469C59.9444 8.42327 60.0413 7.51907 60.2835 6.5197C60.4288 5.90104 60.7195 4.99685 61.1555 3.75954C61.1555 3.71195 61.1555 3.66436 61.1555 3.61677C61.1555 3.56918 61.204 3.37882 61.3009 3.09329C61.4462 2.76017 61.4947 2.52222 61.5431 2.28428C61.5916 2.23669 61.64 2.14151 61.6885 2.09392C61.6885 2.09392 61.6885 2.09392 61.6885 2.04633C61.6885 2.04633 61.6885 2.04633 61.6885 1.99874L61.9791 1.57044C62.2698 1.09455 62.3183 0.571069 62.076 0.0951781C62.1245 0.0951781 61.9791 0 61.7369 0Z" fill="#060807"/>
<path d="M77.1426 3.902C76.0283 3.09298 74.9625 2.75986 73.9451 2.95022L72.2979 2.75986C71.6196 2.66468 71.0383 2.66468 70.6023 2.75986C70.4569 2.75986 70.36 2.85504 70.2631 2.95022C70.2147 3.04539 70.2147 3.18816 70.2147 3.33093C70.36 4.09235 70.2631 4.99655 69.8756 5.99592L68.8097 8.61332C68.5191 9.18438 68.4222 9.80304 68.5675 10.4217L68.9551 11.8018C69.0035 11.9921 69.1973 12.1349 69.4395 12.1349H69.8271C70.1178 12.1349 70.3116 11.9446 70.3116 11.659V10.7072H70.36C70.36 10.7072 70.4085 10.7072 70.4085 10.6596C70.9414 10.4217 71.9103 10.1838 73.3637 9.94581C74.7687 9.70786 75.7861 9.42233 76.5612 8.99403C76.5612 8.99403 76.6097 8.99403 76.6097 8.94644C76.9972 8.70849 77.2879 8.42296 77.5301 8.13743C77.8693 7.75671 78.0146 7.47118 78.0146 7.18564C78.4022 5.94833 78.0631 4.80619 77.1426 3.902C77.191 3.902 77.191 3.902 77.1426 3.902ZM71.1836 6.32904C71.4259 5.56762 71.6196 4.90137 71.7165 4.37789C72.0557 4.52066 72.5886 4.56825 73.2668 4.56825L74.914 4.61583C75.5438 4.66342 75.9799 4.85378 76.319 5.13931C76.755 5.47244 76.9972 5.99592 77.1426 6.70975C76.9972 7.32841 76.4159 7.75671 75.4954 8.04225L74.2358 8.32778C73.7029 8.47055 73.3153 8.56573 73.0246 8.70849C72.8308 8.70849 72.637 8.56573 72.3463 8.18501C72.201 8.04225 72.1041 7.89948 71.9588 7.89948C71.8619 7.89948 71.7165 7.94707 71.5712 8.04225L71.0867 8.2326H70.4085L71.1836 6.32904Z" fill="#060807"/>
<path d="M92.3066 7.13837C91.6284 6.75766 90.7563 6.61489 89.7874 6.66248H87.6073V6.37695C88.77 5.47276 89.8843 4.8541 90.9501 4.52098H90.9986C91.3377 4.37821 91.5315 4.04509 91.5315 3.66437V3.61678V2.99813C91.5315 2.95054 91.5315 2.90295 91.483 2.85536C91.4346 2.80777 91.4346 2.71259 91.3377 2.665C91.2893 2.61741 91.2408 2.56982 91.1439 2.56982C91.0955 2.56982 91.047 2.56982 90.9986 2.56982H90.3688C90.3203 2.56982 90.2719 2.56982 90.2234 2.56982C90.175 2.56982 90.0781 2.61741 90.0296 2.665C89.3029 3.23607 88.5278 3.75955 87.6557 4.23544C86.8806 4.56856 84.652 5.47276 84.9427 6.99561C84.9427 7.0432 84.9427 7.0432 84.9912 7.09079C85.185 7.56668 85.5725 7.8998 86.1054 7.99498H86.1539H86.2023L87.462 8.04257H87.5104L88.9638 7.8998L90.2234 7.94739L90.3203 8.09016C90.3203 8.09016 90.3203 8.09016 90.3203 8.13775L90.175 8.37569C89.739 8.70881 89.206 9.04194 88.5762 9.27988C87.9949 9.56542 87.4135 9.75577 86.7837 9.85095C86.6868 9.85095 86.5899 9.89854 86.493 9.99372C86.1539 10.3744 85.9601 10.7551 85.9601 11.1359C85.9601 11.3262 86.057 11.469 86.2508 11.5642C86.2992 11.6117 86.3961 11.6117 86.4446 11.6117C86.5415 11.6117 86.6868 11.5642 86.7353 11.5166C87.0744 11.231 87.5104 10.9931 88.0918 10.7551L89.8358 10.1365C90.5625 9.85095 91.0955 9.56542 91.483 9.23229C92.0159 8.7564 92.3551 8.18533 92.452 7.51909C92.5489 7.42391 92.452 7.23355 92.3066 7.13837Z" fill="#060807"/>
<path d="M31.748 2.52213C31.6996 2.47454 31.6511 2.37936 31.6027 2.37936C31.5542 2.33177 31.5058 2.28418 31.4089 2.28418C31.3605 2.28418 31.312 2.28418 31.312 2.28418H30.9244C30.876 2.28418 30.8275 2.28418 30.8275 2.28418C30.7791 2.28418 30.6822 2.33177 30.6338 2.37936C30.5853 2.37936 30.5369 2.47454 30.4884 2.52213C30.4884 2.56971 30.44 2.56971 30.44 2.6173C30.0524 4.18774 29.5679 6.61478 28.9866 10.0412C28.9866 10.0888 28.9866 10.0888 28.9866 10.1364C28.9866 10.6123 29.3741 10.8026 30.1008 10.8026C30.3431 10.8026 30.5369 10.6599 30.5853 10.4219C30.6338 10.2791 30.6822 9.80325 30.6338 8.89906C30.6338 8.66112 30.6338 7.94728 30.7791 7.66174L31.6996 5.37747C31.6996 5.37747 31.6996 5.37747 31.6996 5.32988C31.6996 5.32988 31.6996 5.32988 31.6996 5.28229C31.9903 4.28292 32.0387 3.42632 31.8449 2.6173C31.7965 2.56971 31.7965 2.56971 31.748 2.52213Z" fill="#060807"/>
<path d="M21.962 8.37579C21.429 8.37579 20.7992 8.28061 20.0725 8.04267L18.1831 7.42401L18.0378 7.13847C18.0378 7.09089 17.9893 7.09089 17.9893 7.0433C18.1347 6.80535 18.4253 6.56741 18.7645 6.32946L20.121 5.56804C20.7023 5.23491 21.0415 4.8542 21.2353 4.47349C21.4775 3.95001 21.3806 3.37894 20.9446 2.76028C20.7023 2.37957 20.2179 2.09403 19.5881 1.95127C19.0067 1.85609 18.4738 1.85609 17.9893 1.95127C17.9409 1.95127 17.9409 1.95127 17.8924 1.99886C17.844 1.99886 17.844 2.04644 17.7955 2.04644C17.3595 2.37957 16.9235 2.61751 16.5359 2.71269C16.1484 2.80787 15.8092 2.76028 15.567 2.47475C15.5185 2.42716 15.5185 2.42716 15.4701 2.37957C15.4217 2.33198 15.3732 2.33198 15.3248 2.33198C15.2763 2.33198 15.1794 2.33198 15.131 2.33198C15.0825 2.33198 14.9856 2.37957 14.9372 2.42716C14.8887 2.47475 14.8403 2.52234 14.8403 2.56992C14.7918 2.61751 14.7918 2.6651 14.7918 2.71269L14.5981 3.52171C14.3074 4.61625 13.9683 6.18669 13.5807 8.04267C13.0962 10.3269 12.8055 11.6118 12.5633 12.516C12.3695 13.0871 12.418 13.8485 12.7571 14.8479C12.7571 14.8955 12.7571 14.8955 12.8055 14.9431C12.854 14.9907 12.9024 15.0383 12.9509 15.0858C12.9509 15.2286 12.9993 15.2286 13.0478 15.2286C13.0962 15.2286 13.0962 15.2286 13.1447 15.2286H13.1931C13.2415 15.2286 13.29 15.181 13.3384 15.181C13.3869 15.1334 13.4353 15.0858 13.4838 15.0383C13.5322 14.9907 13.5807 14.9431 13.5807 14.8479C13.5807 14.8003 13.5807 14.8003 13.5807 14.7527L13.6776 13.0395V12.754C13.726 12.1829 13.7745 11.707 13.8229 11.3263C14.0167 10.1366 14.4043 9.27998 14.9856 8.7565C15.2279 8.56615 15.6639 8.51856 16.2452 8.66133C16.6813 8.7565 17.2626 8.94686 17.9893 9.23239C19.6365 9.89864 20.9446 10.0414 22.0104 9.66069C22.0589 9.66069 22.0589 9.6607 22.1073 9.61311C22.1557 9.56552 22.2042 9.51793 22.2526 9.47034C22.3011 9.42275 22.3011 9.32757 22.3495 9.27998C22.3495 9.23239 22.3495 9.23239 22.3495 9.1848V8.80409C22.4464 8.56615 22.2526 8.37579 21.962 8.37579ZM15.7608 5.33009C15.9061 4.94938 16.1484 4.61625 16.5844 4.37831C17.0204 4.14036 17.5049 3.95001 17.9893 3.75965C18.716 3.47412 19.2005 3.47412 19.4427 3.61688C19.5881 3.71206 19.4912 3.90242 19.2005 4.28313C18.9583 4.61625 18.5707 4.94938 18.0862 5.33009C17.6018 5.75839 17.1657 6.04393 16.6813 6.28187C16.1968 6.51982 15.8577 6.66258 15.6154 6.56741C15.6154 6.04393 15.6639 5.61562 15.7608 5.33009Z" fill="#060807"/>
<path d="M8.78465 4.7595L7.86416 4.85467L3.93998 5.14021C3.89153 5.14021 3.84308 5.14021 3.74619 4.99744C3.69774 4.90226 3.6493 4.85467 3.6493 4.80709C3.89153 3.8553 4.23066 3.14147 4.66668 2.71317L6.02319 2.1421C6.5561 1.95174 7.08901 1.80897 7.52503 1.76138C7.71882 1.76138 8.0095 1.66621 8.25174 1.2379C8.49397 0.904781 8.44552 0.666836 8.34863 0.524069C8.25174 0.333712 8.0095 0.190945 7.71882 0.190945C6.94367 0.048178 6.12008 0.048178 5.29648 0.333712C4.52134 0.524069 3.89153 0.904781 3.40706 1.38067C2.9226 1.66621 2.58347 2.28486 2.34123 3.14147L2.14745 4.14084C2.05055 4.52155 1.95366 4.80709 1.85677 4.99744L1.42075 5.6161C1.08162 6.13958 1.13007 6.56788 1.22696 6.85341C1.22696 6.901 1.27541 6.94859 1.32385 6.99618C1.3723 7.04377 1.3723 7.09136 1.3723 7.28172V7.32931C1.46919 7.85279 1.46919 8.42385 1.42075 9.0901C1.42075 9.47081 1.32385 10.0419 1.22696 10.7557V10.9461L0.984726 12.8496C0.936279 13.6587 0.936279 14.3249 0.936279 14.9436C0.936279 14.9911 0.936279 15.0387 0.936279 15.0863C0.936279 15.1339 0.984726 15.2291 1.03317 15.2767C1.08162 15.3243 1.13007 15.3719 1.22696 15.3719C1.27541 15.3719 1.32385 15.4194 1.3723 15.4194C1.42075 15.4194 1.46919 15.4194 1.51764 15.4194C1.56609 15.4194 1.66298 15.3719 1.71143 15.3243C1.75987 15.2767 1.80832 15.2291 1.80832 15.1339C1.90521 15.0387 1.90521 14.9911 1.90521 14.9436L2.43813 11.2316C2.68036 9.9467 2.87415 8.70939 3.16483 7.61484C3.16483 7.56725 3.16483 7.56725 3.16483 7.51966C3.16483 7.51966 3.21328 7.47207 3.35862 7.32931C3.60085 7.18654 3.79464 7.13895 3.98842 7.09136C4.42444 7.04377 4.86046 6.901 5.34493 6.75824C5.34493 6.75824 5.34493 6.75824 5.39338 6.75824C5.39338 6.75824 5.39338 6.75824 5.44183 6.75824L6.60455 6.28235C6.99212 6.13958 7.37969 5.94922 7.71882 5.85404L8.0095 5.80646L8.88154 5.71128C9.12378 5.66369 9.31756 5.42574 9.31756 5.1878C9.26912 4.94985 9.02688 4.7595 8.78465 4.7595Z" fill="#060807"/>
</g>
<defs>
<clipPath id="clip0">
<rect width="91.6128" height="15.3713" fill="white" transform="translate(0.936035)"/>
</clipPath>
</defs>
</svg>
